<svg width="23" height="23" viewBox="0 0 23 23" fill="none" xmlns="http://www.w3.org/2000/svg">
<g clip-path="url(#clip0_616_16250)">
<path d="M21.6516 8.83766C21.2922 8.41652 20.9525 8.01854 20.7988 7.64864C20.6332 7.24925 20.5875 6.70809 20.5384 6.13534C20.4577 5.18215 20.3657 4.10192 19.6315 3.36844C18.8981 2.63425 17.8178 2.5423 16.8653 2.46158C16.2919 2.41244 15.7507 2.36682 15.3513 2.20117C14.9814 2.04745 14.5834 1.70773 14.1623 1.34836C13.4218 0.716644 12.583 0 11.5 0C10.4169 0 9.57818 0.716644 8.83766 1.34836C8.41652 1.70773 8.01854 2.04745 7.64864 2.20117C7.24925 2.36682 6.70809 2.41245 6.13534 2.46158C5.18215 2.5423 4.10192 2.63425 3.36844 3.36844C2.63425 4.10193 2.5423 5.18216 2.46158 6.13465C2.41244 6.7081 2.36682 7.24927 2.20117 7.64865C2.04745 8.01855 1.70773 8.41654 1.34836 8.83768C0.716644 9.57819 0 10.417 0 11.5C0 12.583 0.716644 13.4218 1.34836 14.1623C1.70773 14.5835 2.04745 14.9814 2.20117 15.3513C2.36682 15.7507 2.41245 16.2919 2.46158 16.8646C2.5423 17.8178 2.63425 18.8981 3.36844 19.6315C4.10193 20.3657 5.18216 20.4577 6.13465 20.5384C6.7081 20.5875 7.24927 20.6332 7.64865 20.7988C8.01855 20.9525 8.41654 21.2922 8.83768 21.6516C9.57819 22.2833 10.417 23 11.5 23C12.583 23 13.4218 22.2833 14.1623 21.6516C14.5835 21.2922 14.9814 20.9525 15.3513 20.7988C15.7507 20.6332 16.2919 20.5875 16.8646 20.5384C17.8178 20.4577 18.8981 20.3657 19.6315 19.6315C20.3657 18.8981 20.4577 17.8178 20.5384 16.8653C20.5875 16.2919 20.6332 15.7507 20.7988 15.3513C20.9525 14.9814 21.2922 14.5834 21.6516 14.1623C22.2833 13.4218 23 12.583 23 11.5C23 10.4169 22.2833 9.57818 21.6516 8.83766ZM20.5581 13.2288C20.1418 13.7166 19.7116 14.2206 19.4708 14.801C19.2202 15.4068 19.162 16.0862 19.1065 16.7432C19.0405 17.5195 18.9781 18.253 18.6152 18.6152C18.253 18.9781 17.5195 19.0398 16.7432 19.1065C16.0862 19.162 15.4068 19.2202 14.801 19.4708C14.2206 19.7116 13.7166 20.1418 13.2288 20.5581C12.6237 21.0747 12.0524 21.5625 11.5 21.5625C10.9476 21.5625 10.3762 21.0747 9.77118 20.5581C9.28336 20.1418 8.77939 19.7116 8.19892 19.4708C7.59317 19.2202 6.91373 19.162 6.25675 19.1065C5.48044 19.0405 4.74696 18.9781 4.38477 18.6152C4.02189 18.253 3.96012 17.5195 3.89344 16.7432C3.83799 16.0862 3.77973 15.4068 3.52915 14.801C3.2884 14.2206 2.85813 13.7166 2.4419 13.2288C1.9253 12.6237 1.43747 12.0524 1.43747 11.5C1.43747 10.9476 1.9253 10.3762 2.4419 9.77119C2.85813 9.28337 3.28839 8.7794 3.52915 8.19892C3.77973 7.59318 3.83799 6.91374 3.89344 6.25676C3.95942 5.48045 4.02189 4.74697 4.38477 4.38478C4.74695 4.02189 5.48044 3.96012 6.25675 3.89344C6.91374 3.83799 7.59318 3.77973 8.19892 3.52915C8.77939 3.2884 9.28336 2.85813 9.77118 2.4419C10.3762 1.9253 10.9476 1.43748 11.5 1.43748C12.0524 1.43748 12.6237 1.9253 13.2288 2.4419C13.7166 2.85813 14.2206 3.2884 14.801 3.52915C15.4068 3.77973 16.0862 3.83799 16.7432 3.89344C17.5195 3.95942 18.253 4.02189 18.6152 4.38478C18.9781 4.74696 19.0398 5.48045 19.1065 6.25676C19.162 6.91374 19.2202 7.59319 19.4708 8.19892C19.7116 8.7794 20.1418 9.28337 20.5581 9.77119C21.0747 10.3762 21.5625 10.9476 21.5625 11.5C21.5625 12.0524 21.0747 12.6237 20.5581 13.2288Z" fill="#262626"/>
<path d="M11.5 4.3125C7.53704 4.3125 4.3125 7.53704 4.3125 11.5H5.75C5.75 8.32949 8.32949 5.75 11.5 5.75V4.3125Z" fill="#262626"/>
<path d="M11.5 17.25V18.6875C15.463 18.6875 18.6875 15.463 18.6875 11.5H17.25C17.25 14.6705 14.6705 17.25 11.5 17.25Z" fill="#262626"/>
</g>
<defs>
<clipPath id="clip0_616_16250">
<rect width="23" height="23" fill="white"/>
</clipPath>
</defs>
</svg>
