<svg width="23" height="23" viewBox="0 0 23 23" fill="none" xmlns="http://www.w3.org/2000/svg">
<path d="M0.801022 6.95137C1.24351 6.95137 1.60204 6.59273 1.60204 6.15035V2.73501L6.76116 7.89305C6.91762 8.04941 7.12258 8.12759 7.32753 8.12759C7.53259 8.12759 7.73765 8.04941 7.89401 7.89295C8.20684 7.58012 8.20684 7.07291 7.89391 6.7602L2.73458 1.60204H6.15067C6.59305 1.60204 6.95169 1.2434 6.95169 0.801022C6.95169 0.358644 6.59315 0 6.15067 0H0.801022C0.358537 0 0 0.358644 0 0.801022V6.15046C0 6.59273 0.358537 6.95137 0.801022 6.95137Z" fill="#262626"/>
<path d="M22.1992 16.047C21.7567 16.047 21.3982 16.4057 21.3982 16.848V20.2635L16.0802 14.9456C15.7673 14.6327 15.2602 14.6327 14.9474 14.9456C14.6346 15.2584 14.6346 15.7656 14.9474 16.0783L20.2652 21.3961H16.85C16.4075 21.3961 16.049 21.7548 16.049 22.1972C16.049 22.6395 16.4075 22.9982 16.85 22.9982H22.1993C22.6418 22.9982 23.0003 22.6395 23.0003 22.1972V16.848C23.0002 16.4057 22.6416 16.047 22.1992 16.047Z" fill="#262626"/>
<path d="M6.9198 14.9456L1.60241 20.2634V16.848C1.60241 16.4057 1.24387 16.047 0.801388 16.047C0.358903 16.047 0.000366211 16.4057 0.000366211 16.848V22.1974C0.000366211 22.6398 0.358903 22.9984 0.801388 22.9984H6.1505C6.59288 22.9984 6.95152 22.6398 6.95152 22.1974C6.95152 21.755 6.59299 21.3964 6.1505 21.3964H2.73516L8.05266 16.0783C8.36549 15.7655 8.36549 15.2583 8.05256 14.9455C7.73994 14.6327 7.23274 14.6327 6.9198 14.9456Z" fill="#262626"/>
<path d="M22.1989 0H16.8496C16.4071 0 16.0486 0.358644 16.0486 0.801022C16.0486 1.2434 16.4071 1.60204 16.8496 1.60204H20.265L15.1067 6.76073C14.7939 7.07355 14.7939 7.58076 15.1068 7.89359C15.2631 8.04995 15.4682 8.12813 15.6732 8.12813C15.8781 8.12813 16.0832 8.04984 16.2396 7.89348L21.398 2.73479V6.15035C21.398 6.59273 21.7565 6.95137 22.199 6.95137C22.6415 6.95137 23 6.59273 23 6.15035V0.801022C22.9999 0.358537 22.6413 0 22.1989 0Z" fill="#262626"/>
</svg>
