<svg width="25" height="23" viewBox="0 0 25 23" fill="none" xmlns="http://www.w3.org/2000/svg">
<path d="M2.2085 7.41797C1.63852 7.41797 1.17725 6.95617 1.17725 6.38672V3.30307C1.17725 1.59151 2.57005 0.199219 4.2811 0.199219H8.396C8.96597 0.199219 9.42725 0.661012 9.42725 1.23047C9.42725 1.79992 8.96597 2.26172 8.396 2.26172H4.2811C3.70711 2.26172 3.23975 2.72898 3.23975 3.30307V6.38672C3.23975 6.95617 2.77847 7.41797 2.2085 7.41797Z" fill="#262626"/>
<path d="M20.8386 22.8867H16.6421C16.0721 22.8867 15.6108 22.4249 15.6108 21.8555C15.6108 21.286 16.0721 20.8242 16.6421 20.8242H20.8386C21.3734 20.8242 21.8083 20.3891 21.8083 19.8544V16.6992C21.8083 16.1298 22.2696 15.668 22.8396 15.668C23.4096 15.668 23.8708 16.1298 23.8708 16.6992V19.8544C23.8709 21.5267 22.5103 22.8867 20.8386 22.8867Z" fill="#262626"/>
<path d="M8.396 22.8828H4.23676C2.54994 22.8828 1.17725 21.5101 1.17725 19.8228V16.6953C1.17725 16.1259 1.63852 15.6641 2.2085 15.6641C2.77847 15.6641 3.23975 16.1259 3.23975 16.6953V19.8228C3.23975 20.3726 3.6869 20.8203 4.23676 20.8203H8.396C8.96597 20.8203 9.42725 21.2821 9.42725 21.8516C9.42725 22.421 8.96597 22.8828 8.396 22.8828Z" fill="#262626"/>
<path d="M22.8319 7.41797C22.2619 7.41797 21.8006 6.95617 21.8006 6.38672V3.25873C21.8006 2.70887 21.3535 2.26172 20.8036 2.26172H16.6494C16.0794 2.26172 15.6182 1.79992 15.6182 1.23047C15.6182 0.661012 16.0794 0.199219 16.6494 0.199219H20.8036C22.4904 0.199219 23.8631 1.57192 23.8631 3.25873V6.38672C23.8631 6.95617 23.4018 7.41797 22.8319 7.41797Z" fill="#262626"/>
<path d="M24.9058 11.5633C24.9058 12.1305 24.4418 12.5945 23.8746 12.5945H1.17676C0.60957 12.5945 0.145508 12.1305 0.145508 11.5633C0.145508 10.9961 0.60957 10.532 1.17676 10.532H5.32238L5.30176 5.32422C5.30176 4.75703 5.76582 4.29297 6.33301 4.29297C6.9002 4.29297 7.36426 4.75703 7.36426 5.32422L7.38488 10.532H9.51957L9.48863 5.35516C9.48863 4.77766 9.95269 4.31359 10.5199 4.31359C11.0871 4.31359 11.5511 4.77766 11.5511 5.34484L11.5821 10.532H13.5724L13.5518 5.35516C13.5518 4.77766 14.0055 4.31359 14.583 4.31359C15.1502 4.31359 15.6143 4.77766 15.6143 5.34484L15.6349 10.532H17.6974L17.6768 5.32422C17.6768 4.75703 18.1408 4.29297 18.708 4.29297C19.2752 4.29297 19.7393 4.75703 19.7393 5.32422L19.7599 10.532H23.8746C24.4418 10.532 24.9058 10.9961 24.9058 11.5633Z" fill="#262626"/>
<path d="M6.35862 18.781C5.79267 18.781 5.3314 18.3243 5.32737 17.7573L5.3052 14.6716C5.30118 14.1021 5.75936 13.6368 6.32944 13.6328H6.33645C6.9024 13.6328 7.36368 14.0896 7.3677 14.6565L7.38987 17.7422C7.3939 18.3117 6.93571 18.777 6.36564 18.781C6.36564 18.781 6.36069 18.781 6.35862 18.781Z" fill="#262626"/>
<path d="M18.7336 18.781C18.1677 18.781 17.7064 18.3243 17.7024 17.7573L17.6802 14.6716C17.6762 14.1021 18.1344 13.6368 18.7044 13.6328H18.7115C19.2774 13.6328 19.7387 14.0896 19.7427 14.6565L19.7649 17.7422C19.7689 18.3117 19.3107 18.777 18.7406 18.781C18.7406 18.781 18.7357 18.781 18.7336 18.781Z" fill="#262626"/>
<path d="M10.5242 16.7522C10.5171 16.7522 10.51 16.7522 10.502 16.7522C9.93295 16.7396 9.48085 16.2683 9.49291 15.6988L9.51508 14.6614C9.52715 14.0995 9.98637 13.6523 10.5463 13.6523H10.5685C11.1375 13.6649 11.5896 14.1362 11.5776 14.7058L11.5554 15.7431C11.5433 16.305 11.0841 16.7522 10.5242 16.7522Z" fill="#262626"/>
<path d="M14.5828 16.7522C14.5757 16.7522 14.5686 16.7522 14.5606 16.7522C13.9915 16.7396 13.5394 16.2683 13.5515 15.6988L13.5737 14.6614C13.5857 14.0995 14.045 13.6523 14.6049 13.6523H14.6271C15.1961 13.6649 15.6482 14.1362 15.6362 14.7058L15.614 15.7431C15.6019 16.305 15.1427 16.7522 14.5828 16.7522Z" fill="#262626"/>
</svg>
