<svg width="18" height="20" viewBox="0 0 18 20" fill="none" xmlns="http://www.w3.org/2000/svg">
<path d="M8.99986 0.000466333C10.6386 -0.0171424 12.244 0.464303 13.6026 1.38084C14.9612 2.29737 16.0088 3.6056 16.6061 5.13172C17.2413 6.64123 17.4022 8.3083 17.0673 9.91142C16.7324 11.5145 15.9175 12.9778 14.7311 14.1067L8.99986 19.6192L3.29361 14.1067C2.10717 12.9778 1.29236 11.5145 0.957445 9.91142C0.622534 8.3083 0.783379 6.64123 1.41861 5.13172C2.01444 3.60961 3.05818 2.30417 4.41184 1.38797C5.7655 0.471767 7.36534 -0.0120538 8.99986 0.000466333ZM4.16236 13.2067L8.99986 17.8817L13.8374 13.2067C14.8373 12.2518 15.5261 11.0175 15.8138 9.66499C16.1015 8.31252 15.9746 6.90474 15.4499 5.62547C14.9439 4.32912 14.0564 3.21685 12.9047 2.43569C11.753 1.65452 10.3914 1.24124 8.99986 1.25047C7.60829 1.24124 6.24668 1.65452 5.09502 2.43569C3.94335 3.21685 3.05586 4.32912 2.54986 5.62547C2.02508 6.90474 1.89824 8.31252 2.18591 9.66499C2.47357 11.0175 3.16237 12.2518 4.16236 13.2067Z" fill="#262626"/>
<path d="M10.875 4.1875H13.6875V12.3125H4.3125V4.1875H10.875ZM8.375 5.4375V6.6875H9.625V5.4375H8.375ZM5.5625 5.4375V11.0625H12.4375V5.4375H10.875V7.9375H7.125V5.4375H5.5625Z" fill="#262626"/>
</svg>
