<svg width="19" height="13" viewBox="0 0 19 13" fill="none" xmlns="http://www.w3.org/2000/svg">
<path d="M13.5111 10.75H7.50488" stroke="#262626" stroke-miterlimit="10" stroke-linecap="round" stroke-linejoin="round"/>
<path d="M17.1682 10.75H18.4432V6.8786L15.25 3.57924H12.6372V3.58396V10.7149" stroke="#262626" stroke-miterlimit="10" stroke-linecap="round" stroke-linejoin="round"/>
<path d="M18.4433 6.87891H12.6371" stroke="#262626" stroke-miterlimit="10" stroke-linecap="round" stroke-linejoin="round"/>
<path d="M4.46888 9.4041C5.14939 8.72355 6.25265 8.72355 6.93316 9.4041C7.61364 10.0846 7.61364 11.188 6.93316 11.8685C6.25265 12.549 5.14939 12.549 4.46888 11.8685C3.78837 11.188 3.78837 10.0846 4.46888 9.4041Z" stroke="#262626" stroke-miterlimit="10" stroke-linecap="round" stroke-linejoin="round"/>
<path d="M14.1814 9.4041C14.8619 8.72355 15.9651 8.72355 16.6457 9.4041C17.3262 10.0846 17.3262 11.188 16.6457 11.8685C15.9651 12.549 14.8619 12.549 14.1814 11.8685C13.5009 11.188 13.5009 10.0846 14.1814 9.4041Z" stroke="#262626" stroke-miterlimit="10" stroke-linecap="round" stroke-linejoin="round"/>
<path d="M2.31396 0.623251V10.7461H3.88625" stroke="#262626" stroke-miterlimit="10" stroke-linecap="round" stroke-linejoin="round"/>
<path d="M12.6528 3.58594V0.623014H2.31396" stroke="#262626" stroke-miterlimit="10" stroke-linecap="round" stroke-linejoin="round"/>
<path d="M6.17616 0.621094H2.31396" stroke="#262626" stroke-miterlimit="10" stroke-linecap="round" stroke-linejoin="round"/>
<path d="M6.17615 2.84766H1.33594" stroke="#262626" stroke-miterlimit="10" stroke-linecap="round" stroke-linejoin="round"/>
<path d="M5.76802 5.07422H0.556641" stroke="#262626" stroke-miterlimit="10" stroke-linecap="round" stroke-linejoin="round"/>
</svg>
