<svg width="17" height="11" viewBox="0 0 17 11" fill="none" xmlns="http://www.w3.org/2000/svg">
<path d="M3.15973 0.152348C3.08137 0.152049 3.00373 0.16715 2.93127 0.197C2.85882 0.22685 2.79299 0.270751 2.73758 0.326161C2.68217 0.381572 2.63827 0.447381 2.60842 0.519835C2.57858 0.592289 2.56336 0.669937 2.56366 0.748299V1.93582H3.75116V1.33973H15.625V7.27842H15.0324V8.46717H16.2211C16.3785 8.46654 16.5293 8.40335 16.6402 8.29157C16.7511 8.1798 16.8131 8.02855 16.8125 7.87108V0.748299C16.8131 0.590829 16.7511 0.439588 16.6402 0.327805C16.5293 0.216022 16.3785 0.152977 16.2211 0.152348H3.15973ZM0.78357 2.52725C0.705211 2.52695 0.627568 2.54219 0.555116 2.57204C0.482664 2.60189 0.416836 2.64579 0.361427 2.7012C0.306018 2.75661 0.262123 2.82242 0.232273 2.89487C0.202423 2.96732 0.187208 3.04498 0.187504 3.12334V10.246C0.187205 10.3243 0.202418 10.402 0.232266 10.4744C0.262115 10.5469 0.30601 10.6128 0.361419 10.6683C0.416828 10.7237 0.482657 10.7676 0.555111 10.7974C0.627564 10.8273 0.705209 10.8424 0.78357 10.8421H13.8449C14.0024 10.8414 14.1532 10.7784 14.2641 10.6666C14.375 10.5548 14.4369 10.4034 14.4363 10.246V3.12334C14.4369 2.96587 14.375 2.81462 14.2641 2.70284C14.1531 2.59106 14.0024 2.52788 13.8449 2.52725H0.78357ZM1.375 3.716H2.45697C2.27969 4.22422 1.88321 4.61953 1.375 4.79682V3.716ZM3.69202 3.716H10.9376C10.9379 3.71755 10.9382 3.71814 10.9388 3.72038C11.0182 4.10585 11.1726 4.46455 11.3865 4.78038C11.8141 5.41207 12.4779 5.87175 13.2489 6.0305V7.33978C12.0909 7.57821 11.1743 8.49579 10.9377 9.65441H3.69205C3.45511 8.49426 2.5352 7.5755 1.37503 7.33855V6.03159C2.53516 5.79466 3.45508 4.87617 3.69202 3.716ZM12.1727 3.716H13.2488V4.79449C12.743 4.61631 12.3494 4.22249 12.1727 3.716ZM7.31482 4.90352C6.3381 4.90352 5.53009 5.70561 5.53009 6.68233C5.53009 7.65905 6.3381 8.46717 7.31482 8.46717C8.29155 8.46717 9.09375 7.65905 9.09375 6.68233C9.09375 5.70561 8.29155 4.90352 7.31482 4.90352ZM7.31482 6.0909C7.64977 6.0909 7.90625 6.34738 7.90625 6.68233C7.90625 7.01728 7.64977 7.27842 7.31482 7.27842C6.97987 7.27842 6.71876 7.01728 6.71876 6.68233C6.71876 6.34738 6.97987 6.0909 7.31482 6.0909ZM1.375 8.57373C1.88311 8.75101 2.27971 9.14642 2.45697 9.65455H1.375V8.57373ZM13.2488 8.57496V9.65469H12.1727C12.3495 9.14815 12.7429 8.75305 13.2488 8.57496Z" fill="#262626"/>
</svg>
