<svg width="16" height="16" viewBox="0 0 16 16" fill="none" xmlns="http://www.w3.org/2000/svg">
<path d="M12.375 8C12.5408 8 12.6997 7.93415 12.8169 7.81694C12.9342 7.69973 13 7.54076 13 7.375C13 7.20924 12.9342 7.05027 12.8169 6.93306C12.6997 6.81585 12.5408 6.75 12.375 6.75H10.5C10.3342 6.75 10.1753 6.81585 10.0581 6.93306C9.94085 7.05027 9.875 7.20924 9.875 7.375C9.875 7.54076 9.94085 7.69973 10.0581 7.81694C10.1753 7.93415 10.3342 8 10.5 8H12.375Z" fill="#262626"/>
<path d="M14.875 0.5H1.125C0.95924 0.5 0.800269 0.565848 0.683058 0.683058C0.565848 0.800269 0.5 0.95924 0.5 1.125V9.875C0.5 10.0408 0.565848 10.1997 0.683058 10.3169C0.800269 10.4342 0.95924 10.5 1.125 10.5H3V11.3375C2.99927 11.7482 3.07948 12.1549 3.23605 12.5346C3.39263 12.9142 3.62249 13.2593 3.9125 13.55L4.875 14.5063V14.875C4.875 15.0408 4.94085 15.1997 5.05806 15.3169C5.17527 15.4342 5.33424 15.5 5.5 15.5C5.66576 15.5 5.82473 15.4342 5.94194 15.3169C6.05915 15.1997 6.125 15.0408 6.125 14.875V14.25C6.12548 14.1677 6.10971 14.0862 6.07861 14.0101C6.0475 13.9339 6.00168 13.8647 5.94375 13.8063L4.8 12.6625C4.44827 12.3112 4.25044 11.8346 4.25 11.3375V9.25C4.25 9.08424 4.31585 8.92527 4.43306 8.80806C4.55027 8.69085 4.70924 8.625 4.875 8.625C5.04076 8.625 5.19973 8.69085 5.31694 8.80806C5.43415 8.92527 5.5 9.08424 5.5 9.25V11.125C5.5 11.2908 5.56585 11.4497 5.68306 11.5669C5.80027 11.6842 5.95924 11.75 6.125 11.75C6.29076 11.75 6.44973 11.8158 6.56694 11.9331C6.68415 12.0503 6.75 12.2092 6.75 12.375C6.75 12.5408 6.81585 12.6997 6.93306 12.8169C7.05027 12.9342 7.20924 13 7.375 13C7.54076 13 7.69973 12.9342 7.81694 12.8169C7.93415 12.6997 8 12.5408 8 12.375C8.0002 11.9871 7.88009 11.6087 7.65621 11.2919C7.43234 10.9751 7.11572 10.7356 6.75 10.6062V9.25C6.75 8.75272 6.55246 8.27581 6.20083 7.92417C5.84919 7.57254 5.37228 7.375 4.875 7.375C4.37772 7.375 3.90081 7.57254 3.54917 7.92417C3.19754 8.27581 3 8.75272 3 9.25H1.75V5.5H14.25V9.25H8.625C8.45924 9.25 8.30027 9.31585 8.18306 9.43306C8.06585 9.55027 8 9.70924 8 9.875C8 10.0408 8.06585 10.1997 8.18306 10.3169C8.30027 10.4342 8.45924 10.5 8.625 10.5H11.75V11.3375C11.7496 11.8346 11.5517 12.3112 11.2 12.6625L10.0563 13.8063C9.99832 13.8647 9.9525 13.9339 9.92139 14.0101C9.89029 14.0862 9.87452 14.1677 9.875 14.25V14.875C9.875 15.0408 9.94085 15.1997 10.0581 15.3169C10.1753 15.4342 10.3342 15.5 10.5 15.5C10.6658 15.5 10.8247 15.4342 10.9419 15.3169C11.0592 15.1997 11.125 15.0408 11.125 14.875V14.5063L12.0875 13.55C12.3775 13.2593 12.6074 12.9142 12.7639 12.5346C12.9205 12.1549 13.0007 11.7482 13 11.3375V10.5H14.875C15.0408 10.5 15.1997 10.4342 15.3169 10.3169C15.4342 10.1997 15.5 10.0408 15.5 9.875V1.125C15.5 0.95924 15.4342 0.800269 15.3169 0.683058C15.1997 0.565848 15.0408 0.5 14.875 0.5ZM1.75 4.25V1.75H14.25V4.25H1.75Z" fill="#262626"/>
</svg>
