<svg width="20" height="28" viewBox="0 0 20 28" fill="none" xmlns="http://www.w3.org/2000/svg">
<path d="M9.99847 28H10C10.302 28 10.5469 27.7552 10.5469 27.4531C10.5469 27.1511 10.302 26.9062 10 26.9062C9.69796 26.9062 9.45236 27.1511 9.45236 27.4531C9.45236 27.7552 9.69643 28 9.99847 28Z" fill="#496CEA"/>
<path d="M1.35643 20.1931V18.0126C1.35643 18.0096 1.35643 18.0066 1.35648 18.0036C1.38142 16.4868 1.95214 15.3646 3.10118 14.5727C4.05783 13.9135 5.26183 13.5891 6.42618 13.2754C6.75797 13.186 7.07674 13.1001 7.38327 13.0085V11.8513C6.13573 11.0082 5.31384 9.58054 5.31384 7.96441V7.3786C5.25034 7.33091 5.18926 7.27863 5.13145 7.22099C4.5183 6.60784 4.46514 5.6438 4.97127 4.96934V2.77599C4.97133 1.24529 6.21662 0 7.74726 0H12.2535C13.7842 0 15.0295 1.24529 15.0295 2.77599V4.9694C15.5356 5.64386 15.4824 6.60789 14.8686 7.2217C14.811 7.27913 14.7501 7.33119 14.6869 7.37877V7.96441C14.6869 9.58027 13.865 11.0077 12.6175 11.8508V13.0085C12.924 13.1001 13.2428 13.186 13.5745 13.2754C14.7389 13.5891 15.9429 13.9135 16.8995 14.5727C18.0486 15.3646 18.6193 16.4868 18.6442 18.0036C18.6443 18.0066 18.6443 18.0096 18.6443 18.0126V20.1931C18.899 20.4503 19.0566 20.8038 19.0566 21.1935V22.7499C19.0566 23.5344 18.4184 24.1726 17.6339 24.1726H16.2714C16.1997 24.1726 16.1287 24.1689 16.0587 24.1622V26.7106C16.0587 27.4216 15.481 28.0001 14.7709 28.0001H12.4566C12.1545 28.0001 11.9097 27.7552 11.9097 27.4532C11.9097 27.1511 12.1545 26.9063 12.4566 26.9063H14.7709C14.8761 26.9063 14.965 26.8167 14.965 26.7106V23.7416C14.4228 23.3404 14.0706 22.6965 14.0706 21.9717C14.0706 21.247 14.4229 20.6031 14.965 20.2018V18.5567C14.965 18.4515 14.8761 18.3626 14.7709 18.3626H12.2191V21.6911C12.2191 21.8933 12.1075 22.079 11.9291 22.1739C11.8485 22.2168 11.7603 22.238 11.6722 22.238C11.5653 22.238 11.4586 22.2066 11.3666 22.1447L9.99979 21.2237L8.63441 22.1446C8.46673 22.2576 8.25033 22.269 8.07189 22.174C7.89334 22.0791 7.78177 21.8934 7.78177 21.6912V18.3626H5.22995C5.12391 18.3626 5.03433 18.4515 5.03433 18.5567V20.2008C5.57732 20.602 5.93027 21.2464 5.93027 21.9718C5.93027 22.6972 5.57732 23.3416 5.03433 23.7428V26.7107C5.03433 26.8167 5.12391 26.9064 5.22995 26.9064H7.54427C7.8463 26.9064 8.09114 27.1512 8.09114 27.4532C8.09114 27.7553 7.8463 28.0001 7.54427 28.0001H5.22995C4.51901 28.0001 3.94058 27.4217 3.94058 26.7107V24.1624C3.87107 24.1691 3.80069 24.1727 3.72943 24.1727H2.36689C1.5824 24.1727 0.944195 23.5345 0.944195 22.75V21.1936C0.944086 20.8038 1.10175 20.4503 1.35643 20.1931ZM13.9357 2.77599C13.9357 1.84838 13.1811 1.09375 12.2535 1.09375H7.74726C6.81971 1.09375 6.06508 1.84838 6.06508 2.77599V4.00099C7.21122 3.19938 8.57255 2.76741 10.0004 2.76741C11.4282 2.76741 12.7896 3.19933 13.9357 4.00099V2.77599ZM14.0959 6.44766C14.3412 6.20227 14.3412 5.80311 14.0959 5.55773L14.0958 5.55767C13.0019 4.4637 11.5474 3.86121 10.0004 3.86121C8.45339 3.86121 6.99892 4.4637 5.90495 5.55767L5.90484 5.55773C5.65951 5.80311 5.65957 6.20233 5.90419 6.447C6.14946 6.6914 6.54852 6.69145 6.79313 6.44766C7.64992 5.59087 8.78862 5.11902 9.99952 5.11902C11.2104 5.11902 12.3491 5.59087 13.2052 6.447C13.451 6.69189 13.8508 6.69189 14.0959 6.44766ZM13.5931 7.96441V7.72215C13.1715 7.70809 12.754 7.54135 12.4326 7.22105C11.7824 6.57087 10.9184 6.21277 9.99962 6.21277C9.08087 6.21277 8.21681 6.57081 7.56598 7.2217C7.24534 7.54124 6.82868 7.70766 6.40764 7.72182V7.96447C6.40764 9.94602 8.01901 11.5581 9.99962 11.5581C11.9811 11.558 13.5931 9.94596 13.5931 7.96441ZM8.47707 12.3964V13.4102C8.47707 14.2498 9.16006 14.9328 9.99962 14.9328C10.84 14.9328 11.5237 14.2498 11.5237 13.4102V12.396C11.0455 12.561 10.5331 12.6518 9.99962 12.6518C9.46669 12.6518 8.95482 12.5611 8.47707 12.3964ZM17.6339 23.0789C17.8153 23.0789 17.9629 22.9313 17.9629 22.7499V21.1935C17.9629 21.0121 17.8153 20.8646 17.6339 20.8646H16.2714C15.6609 20.8646 15.1643 21.3613 15.1643 21.9717C15.1643 22.5822 15.6609 23.0789 16.2714 23.0789H17.6339ZM8.87547 20.6627L9.69387 20.1108C9.8786 19.9862 10.1205 19.9861 10.3052 20.1107L11.1254 20.6633V18.3626H8.87547V20.6627ZM5.22989 17.2688H14.7709C15.481 17.2688 16.0587 17.8466 16.0587 18.5567V19.7813C16.1287 19.7746 16.1997 19.7708 16.2714 19.7708H17.5506V18.0173C17.5307 16.8659 17.1266 16.0575 16.279 15.4733C15.477 14.9207 14.3652 14.6211 13.2901 14.3315C13.0352 14.2628 12.7759 14.1924 12.5191 14.1187C12.2091 15.218 11.1974 16.0264 9.99968 16.0264C8.80262 16.0264 7.79151 15.2181 7.4817 14.1187C7.225 14.1924 6.96567 14.2628 6.71083 14.3315C5.63567 14.6211 4.52387 14.9207 3.72194 15.4733C2.87428 16.0575 2.47014 16.8658 2.45029 18.0173V19.7708H3.72937C3.80063 19.7708 3.87102 19.7745 3.94052 19.7811V18.5567C3.94047 17.8466 4.5189 17.2688 5.22989 17.2688ZM2.03783 22.7499C2.03783 22.9313 2.18538 23.0789 2.36678 23.0789H3.72937C3.90629 23.0789 4.07303 23.0362 4.22145 22.9621C4.23447 22.9548 4.24798 22.9483 4.26165 22.9421C4.60394 22.7535 4.83647 22.3894 4.83647 21.9718C4.83647 21.3613 4.3398 20.8646 3.72937 20.8646H2.36684C2.18544 20.8646 2.03789 21.0122 2.03789 21.1936V22.7499H2.03783Z" fill="#496CEA"/>
</svg>
