<svg width="21" height="27" viewBox="0 0 21 27" fill="none" xmlns="http://www.w3.org/2000/svg">
<path d="M10.4998 2.69922C9.07578 2.69922 7.68374 3.12149 6.4997 3.91264C5.31567 4.70378 4.39283 5.82827 3.84788 7.1439C3.30292 8.45953 3.16034 9.90721 3.43815 11.3039C3.71597 12.7005 4.4017 13.9834 5.40864 14.9904C6.41558 15.9973 7.69849 16.6831 9.09516 16.9609C10.4918 17.2387 11.9395 17.0961 13.2551 16.5512C14.5708 16.0062 15.6952 15.0834 16.4864 13.8993C17.2775 12.7153 17.6998 11.3232 17.6998 9.89922C17.6973 7.99043 16.9379 6.16053 15.5882 4.81081C14.2385 3.46109 12.4086 2.70172 10.4998 2.69922ZM10.4998 16.1992C9.25379 16.1992 8.03575 15.8297 6.99972 15.1375C5.96369 14.4452 5.1562 13.4613 4.67937 12.3101C4.20253 11.1589 4.07777 9.89223 4.32086 8.67015C4.56395 7.44807 5.16396 6.32552 6.04504 5.44445C6.92611 4.56338 8.04866 3.96336 9.27074 3.72027C10.4928 3.47718 11.7595 3.60195 12.9107 4.07878C14.0619 4.55561 15.0458 5.3631 15.7381 6.39913C16.4303 7.43516 16.7998 8.6532 16.7998 9.89922C16.798 11.5695 16.1337 13.1709 14.9526 14.352C13.7715 15.5331 12.1701 16.1974 10.4998 16.1992Z" fill="#496CEA"/>
<path d="M13.5506 21.735C16.3901 18.5535 20.3996 13.4325 20.3996 9.9C20.3996 7.27436 19.3566 4.75625 17.5 2.89964C15.6434 1.04303 13.1253 0 10.4996 0C7.87397 0 5.35586 1.04303 3.49925 2.89964C1.64264 4.75625 0.599609 7.27436 0.599609 9.9C0.599609 13.4325 4.60911 18.5535 7.44861 21.735C5.33811 21.9285 1.04961 22.5405 1.04961 24.3C1.04961 26.154 5.95011 27 10.4996 27C15.0491 27 19.9496 26.154 19.9496 24.3C19.9496 22.5405 15.6611 21.9285 13.5506 21.735ZM1.49961 9.9C1.49961 7.51305 2.44782 5.22387 4.13565 3.53604C5.82348 1.84821 8.11266 0.9 10.4996 0.9C12.8866 0.9 15.1757 1.84821 16.8636 3.53604C18.5514 5.22387 19.4996 7.51305 19.4996 9.9C19.4996 14.346 12.1241 22.0275 10.4996 23.6655C8.87511 22.0275 1.49961 14.346 1.49961 9.9ZM10.4996 26.1C4.96911 26.1 1.94961 24.912 1.94961 24.3C1.94961 23.85 3.84861 22.8645 8.20911 22.5765C9.28911 23.7465 10.0766 24.516 10.1846 24.624C10.2695 24.7049 10.3823 24.75 10.4996 24.75C10.6169 24.75 10.7297 24.7049 10.8146 24.624C10.9226 24.516 11.7101 23.7465 12.7901 22.5765C17.1506 22.8645 19.0496 23.85 19.0496 24.3C19.0496 24.912 16.0301 26.1 10.4996 26.1Z" fill="#496CEA"/>
<path d="M14.5357 7.99356L14.0857 6.19356C14.0616 6.096 14.0055 6.00932 13.9264 5.94734C13.8473 5.88536 13.7497 5.85164 13.6492 5.85156H7.34922C7.24872 5.85164 7.15114 5.88536 7.07203 5.94734C6.99292 6.00932 6.93684 6.096 6.91272 6.19356L6.46272 7.99356C6.45545 8.02916 6.45093 8.06527 6.44922 8.10156V13.5016C6.44922 13.6209 6.49663 13.7354 6.58102 13.8198C6.66541 13.9042 6.77987 13.9516 6.89922 13.9516H14.0992C14.2186 13.9516 14.333 13.9042 14.4174 13.8198C14.5018 13.7354 14.5492 13.6209 14.5492 13.5016V8.10156C14.5475 8.06527 14.543 8.02916 14.5357 7.99356ZM11.8492 6.75156H13.2982L13.5232 7.65156H11.8492V6.75156ZM10.0492 6.75156H10.9492V7.65156H10.0492V6.75156ZM10.0492 8.55156H10.9492V9.45156H10.0492V8.55156ZM7.70022 6.75156H9.14922V7.65156H7.47522L7.70022 6.75156ZM13.6492 13.0516H7.34922V8.55156H9.14922V9.90156C9.14922 10.0209 9.19663 10.1354 9.28102 10.2198C9.36541 10.3042 9.47987 10.3516 9.59922 10.3516H11.3992C11.5186 10.3516 11.633 10.3042 11.7174 10.2198C11.8018 10.1354 11.8492 10.0209 11.8492 9.90156V8.55156H13.6492V13.0516Z" fill="#496CEA"/>
<path d="M11.3992 11.6992C11.2799 11.6992 11.1654 11.7466 11.081 11.831C10.9966 11.9154 10.9492 12.0299 10.9492 12.1492C10.9492 12.2686 10.9966 12.383 11.081 12.4674C11.1654 12.5518 11.2799 12.5992 11.3992 12.5992H12.7492C12.8686 12.5992 12.983 12.5518 13.0674 12.4674C13.1518 12.383 13.1992 12.2686 13.1992 12.1492C13.1992 12.0299 13.1518 11.9154 13.0674 11.831C12.983 11.7466 12.8686 11.6992 12.7492 11.6992H11.3992Z" fill="#496CEA"/>
</svg>
