<svg width="30" height="18" viewBox="0 0 30 18" fill="none" xmlns="http://www.w3.org/2000/svg">
<path fill-rule="evenodd" clip-rule="evenodd" d="M3.20204 9.12109H2.22469C2.15391 9.39906 2.14079 9.66063 2.2411 9.93157C2.27344 10.0192 2.31938 10.1102 2.38313 10.2034C2.31891 10.2456 2.25844 10.2897 2.20032 10.3342C2.09485 10.4158 2.01844 10.5208 1.88953 10.5363C1.81594 10.5452 1.73203 10.5133 1.61578 10.4556C1.47047 10.383 1.29797 10.3905 1.15969 10.4758C1.02141 10.5616 0.9375 10.712 0.9375 10.8747C0.9375 11.5239 1.10438 11.9153 1.31203 12.3569C1.39735 12.5378 1.48922 12.73 1.57406 12.9658L2.45813 12.6442C2.36157 12.3789 2.25657 12.1624 2.16047 11.9575C2.085 11.7977 2.01422 11.6472 1.96219 11.4784C2.14266 11.4634 2.29454 11.3997 2.43563 11.3181C2.5411 11.2572 2.64094 11.1794 2.74501 11.0983C2.87766 10.9952 3.02298 10.8747 3.28126 10.8747C3.48798 10.8747 3.66985 10.7397 3.72985 10.5419C3.78985 10.3441 3.71298 10.1303 3.54141 10.0159C3.27516 9.83828 3.13641 9.71594 3.10969 9.56781C3.08344 9.42156 3.14673 9.28094 3.20204 9.12109Z" fill="#496CEA"/>
<path fill-rule="evenodd" clip-rule="evenodd" d="M4.36251 5.48828C4.00438 5.60734 3.60219 5.74141 3.60219 5.74141C3.47329 5.78453 3.36922 5.8811 3.31719 6.00672C3.26516 6.13235 3.27032 6.27438 3.33125 6.39578C3.43016 6.59407 3.47469 6.79094 3.46391 6.9625C3.45641 7.07688 3.43532 7.18188 3.35703 7.23016C3.27453 7.28172 3.16297 7.24329 3.02235 7.17344C2.85266 7.0886 2.64875 7.11438 2.50578 7.2386C2.36234 7.36282 2.30797 7.5611 2.36797 7.74063C2.56156 8.32188 2.34172 8.70673 2.24469 9.04564C2.22688 9.10892 2.21141 9.17126 2.19922 9.23314H3.16203C3.18172 9.17829 3.20282 9.12204 3.22203 9.06251C3.30407 8.80423 3.38282 8.5197 3.38328 8.18501C3.62657 8.16345 3.83235 8.0636 3.9936 7.9211C4.31751 7.63423 4.48579 7.08672 4.35032 6.48016L4.85657 6.31141L4.36251 5.48828Z" fill="#496CEA"/>
<path fill-rule="evenodd" clip-rule="evenodd" d="M4.18066 5.55001L4.7127 6.36095L5.30426 6.16361C5.37364 6.14064 5.43598 6.10173 5.48754 6.05017C5.71395 5.82423 6.05473 5.5997 6.39364 5.31704C6.74661 5.02313 7.09583 4.67438 7.35552 4.22907C7.62271 4.12219 7.83505 3.96047 8.04036 3.78938C8.25224 3.61266 8.44912 3.4111 8.80677 3.37922C8.95912 3.47344 9.05755 3.65016 9.10724 3.8536C9.15881 4.06407 9.15599 4.3036 9.0899 4.54688H10.0462C10.1235 4.07579 10.0574 3.62297 9.88959 3.26438C9.71428 2.89031 9.42974 2.60953 9.07865 2.47031C9.0238 2.44875 8.96521 2.4375 8.90615 2.4375C8.3024 2.4375 7.93302 2.66719 7.59927 2.93766C7.38974 3.10735 7.20974 3.31172 6.91114 3.39047C6.7813 3.42516 6.67208 3.51375 6.61208 3.63422C6.36411 4.12969 5.96098 4.47001 5.59442 4.75735C5.33942 4.95704 5.09801 5.13423 4.90863 5.3072C4.90863 5.3072 4.53035 5.43329 4.18066 5.55001Z" fill="#496CEA"/>
<path fill-rule="evenodd" clip-rule="evenodd" d="M10.0734 4.3125H9.13454C9.11016 4.53656 9.03235 4.77094 8.89407 4.995C8.59172 4.74234 8.30907 4.70719 8.09063 4.75406C7.84407 4.80703 7.61485 4.98281 7.44235 5.25375C7.16813 5.685 7.03125 6.37641 7.03125 6.65626C7.03125 6.76266 7.06734 6.86579 7.13391 6.94923C7.73016 7.69454 8.46469 7.7297 9.21001 7.61767C9.49407 7.57548 9.77813 7.51032 10.0477 7.48548C10.2122 7.47048 10.3697 7.46626 10.5122 7.51876C10.8183 7.81642 11.1455 8.07001 11.5336 8.12439L11.8045 7.17657C11.7685 7.18829 11.7333 7.19485 11.6986 7.1972C11.5875 7.20376 11.5003 7.14141 11.4141 7.07391C11.3095 6.99188 11.2116 6.89251 11.1127 6.7936C11.077 6.75798 11.0358 6.72844 10.9908 6.70594C10.5309 6.47579 9.9797 6.53204 9.40923 6.63329C8.92126 6.72001 8.40047 6.87329 7.98469 6.49126C8.00719 6.34782 8.05313 6.16266 8.11969 5.99063C8.15532 5.89875 8.235 5.77266 8.27813 5.70797C8.33578 5.76094 8.43985 5.86407 8.51625 5.97891C8.59313 6.09422 8.71735 6.16969 8.85563 6.18469C8.99391 6.19969 9.13126 6.15282 9.2311 6.05626C9.78188 5.52657 10.035 4.89469 10.0734 4.3125Z" fill="#496CEA"/>
<path fill-rule="evenodd" clip-rule="evenodd" d="M11.583 7.1791L11.3604 8.08614C11.4846 8.12364 11.6158 8.14145 11.7546 8.13301C11.9172 8.12364 12.0982 8.0791 12.2974 7.97926C12.2875 8.03176 12.2754 8.08614 12.2622 8.14145C12.1929 8.43301 12.0775 8.74895 11.9444 9.0752C11.8685 9.22895 11.8029 9.38645 11.7461 9.54723C11.6622 9.78583 11.7818 10.0474 12.0171 10.1397C12.2524 10.2321 12.5182 10.121 12.6185 9.88942C12.6775 9.75302 12.7352 9.61661 12.79 9.48208C13.0741 8.91395 13.5415 8.41145 14.2872 8.00551C14.3913 7.94879 14.4705 7.85457 14.508 7.74207C14.5985 7.47066 14.7743 7.33801 14.9707 7.24848C15.1591 7.16223 15.3635 7.10785 15.559 7.04269C15.9597 6.9091 16.3221 6.73051 16.5682 6.38316C16.6844 6.46941 16.8058 6.52941 16.9272 6.57019L17.4387 5.71847C17.3271 5.71613 17.1977 5.70066 17.089 5.59941C16.9915 5.508 16.9174 5.35941 16.8616 5.13628C16.8044 4.90706 16.5846 4.75612 16.3497 4.78472C16.1149 4.81378 15.9382 5.01347 15.9382 5.25019C15.9382 5.54972 15.8876 5.74753 15.7736 5.87878C15.5721 6.11222 15.2458 6.15582 14.9426 6.2566C14.4311 6.42722 13.9521 6.66535 13.6868 7.26816C13.5335 7.3577 13.39 7.45051 13.2565 7.54707C13.2391 7.29816 13.174 7.07504 13.0582 6.88285C12.9836 6.75957 12.8566 6.67754 12.7136 6.65972C12.5707 6.64238 12.4272 6.6916 12.3255 6.79379C12.0658 7.05348 11.876 7.18707 11.6993 7.19738C11.6575 7.19973 11.6191 7.1927 11.583 7.1791Z" fill="#496CEA"/>
<path fill-rule="evenodd" clip-rule="evenodd" d="M17.2365 5.6875L16.8066 6.52328C16.914 6.57157 17.0223 6.60297 17.1287 6.62313C17.0799 6.69344 17.026 6.76797 16.9693 6.84391C16.8291 7.03047 16.8479 7.29157 17.0129 7.45657C18.0765 8.52063 18.6774 8.31579 19.0182 8.01813C19.1396 7.91126 19.2413 7.77016 19.3295 7.62204L19.4045 7.49829C19.4856 7.56016 19.5849 7.59391 19.6881 7.59391C19.9506 7.59391 20.169 7.54938 20.3509 7.47297L20.0513 6.57391C19.9984 6.61047 19.9313 6.63344 19.8502 6.64563C19.6543 6.50031 19.4846 6.45953 19.3501 6.45907C19.1199 6.45813 18.9184 6.56547 18.7529 6.77782C18.6812 6.87016 18.6141 6.98922 18.5434 7.11063C18.5031 7.17954 18.414 7.29157 18.3943 7.31547C18.3854 7.31407 18.3709 7.31172 18.361 7.30891C18.3226 7.29719 18.2809 7.27797 18.2345 7.25172C18.1538 7.20625 18.0657 7.14438 17.9682 7.06329C18.1276 6.83453 18.2204 6.67657 18.2645 6.57063C18.3666 6.32547 18.3259 6.15766 18.2748 6.04891C18.2035 5.89656 18.0685 5.77047 17.8309 5.7325C17.754 5.71984 17.648 5.71984 17.5252 5.71891C17.4418 5.71844 17.3377 5.72266 17.2365 5.6875Z" fill="#496CEA"/>
<path fill-rule="evenodd" clip-rule="evenodd" d="M22.7576 3.78125C22.6493 3.99594 22.5711 4.24156 22.5307 4.53688C22.19 4.58281 21.9842 4.75438 21.829 4.95125C21.7451 5.05766 21.679 5.17813 21.6176 5.29907C21.5773 5.37782 21.5529 5.4636 21.4897 5.51422C21.4611 5.53719 21.4198 5.51516 21.3565 5.50204C21.2201 5.47344 21.0509 5.40782 20.8348 5.3C20.6721 5.21844 20.4771 5.2386 20.3342 5.35157C20.1917 5.46454 20.1275 5.64969 20.1692 5.82688C20.2282 6.07766 20.255 6.34813 20.1096 6.5211C20.0703 6.56751 20.0178 6.60032 19.9521 6.62235L20.1565 7.53829C20.4542 7.46095 20.6707 7.31001 20.8268 7.12485C20.9918 6.92892 21.0889 6.68001 21.1264 6.40954C21.7193 6.54782 22.0151 6.34251 22.2111 6.11423C22.3142 5.99376 22.392 5.84141 22.4717 5.68813C22.5087 5.61688 22.5368 5.53766 22.6062 5.49125C22.6681 5.45 22.7576 5.4561 22.8922 5.47813C23.0281 5.5011 23.1668 5.46266 23.2718 5.3736C23.3773 5.28454 23.4378 5.15375 23.4378 5.01594C23.4378 4.73094 23.4814 4.50453 23.5573 4.31422L22.7576 3.78125Z" fill="#496CEA"/>
<path fill-rule="evenodd" clip-rule="evenodd" d="M22.6807 3.95197L23.5225 4.41088C23.666 3.96181 23.9768 3.70775 24.3274 3.40962C24.7371 3.06134 25.1979 2.67228 25.6094 2.02962C25.579 2.28181 25.5382 2.51853 25.5311 2.72056C25.5199 3.0604 25.601 3.33322 25.7833 3.52822C25.8002 3.54603 25.818 3.56337 25.8372 3.58072C25.8143 3.61072 25.7946 3.64025 25.7772 3.66837C25.6493 3.8765 25.6202 4.06166 25.6432 4.23228C25.6666 4.40572 25.75 4.57588 25.9104 4.7465C26.0407 4.88525 26.2465 5.03713 26.4897 5.24479L27.1535 4.58103C27.0447 4.48775 26.9426 4.40525 26.8507 4.33025C26.7691 4.26369 26.6744 4.1751 26.6163 4.11885C26.689 4.03728 26.8366 3.88119 27.0119 3.74103C27.1685 3.61541 27.228 3.404 27.1596 3.21509C27.0911 3.02619 26.9097 2.90197 26.7086 2.90618C26.6205 2.90806 26.5188 2.89025 26.4761 2.88134C26.4729 2.85087 26.4668 2.79322 26.4682 2.75243C26.471 2.66853 26.4818 2.57759 26.4944 2.4815C26.5821 1.81165 26.7072 0.969304 26.1475 0.269458C26.0402 0.135395 25.8682 0.0707076 25.699 0.101176C25.5302 0.131176 25.391 0.251177 25.3366 0.414302C24.8111 1.99071 23.9571 2.4529 23.3683 3.00462C23.0777 3.27697 22.8349 3.56431 22.6807 3.95197Z" fill="#496CEA"/>
<path fill-rule="evenodd" clip-rule="evenodd" d="M27.0257 4.47656L26.3619 5.14031C26.4721 5.23078 26.5921 5.33297 26.7182 5.45063C26.7186 5.4511 26.7186 6.18985 26.7186 6.18985C26.7186 6.21985 26.7214 6.24938 26.7271 6.27891C26.8747 7.04204 27.1504 7.52767 27.4316 7.96735C27.7011 8.38923 27.9815 8.75673 28.0841 9.3947C27.6805 9.26626 27.3697 8.99017 27.05 8.67095C26.5846 8.20548 26.2621 7.66454 25.985 7.22392L25.3682 7.99501C25.6396 8.42111 25.9593 8.90579 26.3872 9.33377C27.0107 9.9572 27.6388 10.4086 28.5936 10.4086C28.8524 10.4086 29.0624 10.1986 29.0624 9.93986C29.0624 8.88048 28.7615 8.30767 28.4113 7.75689C28.1338 7.32048 27.8122 6.90376 27.6566 6.14579C27.6561 6.14344 27.6561 5.25235 27.6561 5.25235C27.6561 5.12813 27.6069 5.0086 27.5188 4.92094C27.3435 4.74563 27.1761 4.60078 27.0257 4.47656Z" fill="#496CEA"/>
<path fill-rule="evenodd" clip-rule="evenodd" d="M23.1013 11.4924L24.0486 11.3569C24.0439 11.2079 24.0191 11.0804 23.9924 10.9632C23.9685 10.8591 23.9211 10.7757 23.9408 10.673C23.96 10.5741 24.0388 10.4724 24.1883 10.3196C24.6782 10.0491 24.7372 9.73458 24.7105 9.4688C24.6988 9.35396 24.6608 9.23677 24.6074 9.12146L24.5394 8.97614C24.5544 8.96724 24.5699 8.95786 24.5849 8.95036C24.8164 8.83458 24.9102 8.55333 24.7944 8.32177C24.6678 8.06817 24.6266 7.86848 24.6618 7.69598C24.695 7.53473 24.7822 7.40161 24.8896 7.27879C24.9533 7.35661 25.0166 7.44755 25.0832 7.54739C25.2196 7.75317 25.3639 7.98989 25.5271 8.23833L26.0849 7.38004C25.9438 7.15504 25.8163 6.94879 25.6911 6.78239C25.4657 6.48239 25.2294 6.28785 24.9875 6.21004C24.8202 6.15613 24.6369 6.20067 24.5127 6.32489C24.1653 6.67223 23.841 7.03458 23.7439 7.50661C23.6928 7.75364 23.6971 8.03395 23.8002 8.36067C23.5794 8.57489 23.5518 8.80083 23.5714 9.00005C23.5832 9.11489 23.6211 9.23208 23.6746 9.34739L23.7425 9.49271C23.7275 9.50161 23.7121 9.51099 23.6971 9.51849C23.6521 9.54099 23.6108 9.57052 23.5752 9.60614C23.1941 9.98724 23.0638 10.2676 23.0202 10.4972C22.9855 10.6772 23.0014 10.838 23.0389 11.0058C23.0685 11.139 23.121 11.2815 23.1013 11.4924Z" fill="#496CEA"/>
<path fill-rule="evenodd" clip-rule="evenodd" d="M24.0277 11.1445L23.0958 11.2664C23.1169 11.4169 23.1099 11.6044 23.0025 11.8734C22.9538 11.9939 22.958 12.1294 23.0138 12.247C23.0691 12.3652 23.1708 12.4542 23.295 12.4941C23.6372 12.6033 24.0193 12.5109 24.4299 12.3539C24.759 12.2283 25.1241 12.0328 25.5324 12.2138L26.0082 12.5836C25.7949 12.6328 25.606 12.7317 25.4499 12.8878C25.2919 13.0458 25.2675 13.2933 25.3913 13.4794L26.1886 14.6752C26.0536 15.0492 26.0236 15.4228 26.0175 15.7974H26.9532C26.956 15.4767 26.978 15.1552 27.1379 14.835C27.2133 14.6845 27.2021 14.5055 27.1088 14.3653L26.5308 13.4986C26.5716 13.5052 26.6133 13.5131 26.6555 13.5225C27.0183 13.6031 27.4051 13.7714 27.7257 13.8924C27.9427 13.9739 28.1865 13.8849 28.2999 13.6828C28.4129 13.4803 28.3613 13.2258 28.1785 13.0838L26.0691 11.4431C26.0447 11.4239 26.0185 11.4075 25.9908 11.3939C25.3875 11.092 24.8344 11.2059 24.3319 11.3888C24.2344 11.4244 24.1393 11.4623 24.0469 11.497C24.0539 11.3653 24.0441 11.2495 24.0277 11.1445Z" fill="#496CEA"/>
<path fill-rule="evenodd" clip-rule="evenodd" d="M20.9277 14.6814L21.6838 15.2837C21.7021 15.1736 21.7823 15.0705 21.8943 14.9584C22.0326 14.8206 22.2449 14.7325 22.3996 14.8098C22.4798 14.8502 22.5004 14.9523 22.5004 15.0958C22.5004 15.3545 22.7104 15.5645 22.9691 15.5645H24.1054C24.1635 15.6775 24.2306 15.8266 24.276 15.9864C24.3342 16.1884 24.397 16.4359 24.1659 16.5517C23.9713 16.6488 23.8691 16.8667 23.9193 17.0786C23.969 17.29 24.1579 17.4395 24.3754 17.4395C25.1413 17.4395 25.536 17.388 25.919 17.7709C26.0254 17.8774 26.1768 17.9266 26.3254 17.9022C26.474 17.8783 26.6024 17.7841 26.6695 17.6491C26.9395 17.1095 26.9535 16.5728 26.9535 16.0333C26.9535 15.8763 26.9512 15.7188 26.961 15.5613L26.0254 15.5641C26.0174 15.7202 26.016 15.8767 26.016 16.0333C26.016 16.2536 26.0203 16.4748 25.9903 16.6961C25.7732 16.6033 25.5323 16.5541 25.2426 16.5288C25.2684 16.3731 25.267 16.2105 25.2449 16.0464C25.1643 15.4417 24.7654 14.8356 24.7654 14.8356C24.6787 14.7053 24.532 14.627 24.3754 14.627H23.3718C23.2696 14.3003 23.0596 14.0917 22.8187 13.9717C22.3429 13.7336 21.6562 13.8709 21.2315 14.2956C21.104 14.4231 21.0037 14.552 20.9277 14.6814Z" fill="#496CEA"/>
<path fill-rule="evenodd" clip-rule="evenodd" d="M21.0038 14.5625C20.8233 14.8184 20.7422 15.0767 20.7422 15.3294C20.7422 15.3655 20.7441 15.402 20.7474 15.4386C20.3611 15.4288 20.0789 15.4986 19.8614 15.6017C19.5534 15.748 19.3542 15.9683 19.1906 16.2073C19.1883 16.2106 19.1859 16.2139 19.1836 16.2177C19.0111 16.0695 18.8377 15.9772 18.668 15.9186C18.3633 15.8141 18.0591 15.822 17.7544 15.8605C17.4642 15.8966 17.167 16.002 16.875 15.8131V16.8181C17.1117 16.8674 17.3489 16.8566 17.587 16.828C17.8509 16.7961 18.1148 16.7113 18.3783 16.8111C18.532 16.8688 18.675 16.9995 18.8288 17.2302C18.9066 17.3469 19.0327 17.4228 19.1724 17.4364C19.3125 17.4505 19.4508 17.4008 19.5502 17.3014C19.6856 17.1659 19.792 17.0009 19.9013 16.8317C19.9931 16.6897 20.0817 16.535 20.2636 16.4483C20.5008 16.3358 20.8561 16.3391 21.4486 16.4872C21.6535 16.5383 21.8667 16.4469 21.9703 16.2636C22.0744 16.0803 22.043 15.8502 21.8939 15.7011C21.766 15.5731 21.6797 15.4573 21.6797 15.3294C21.6797 15.2511 21.712 15.177 21.7664 15.1025L21.0038 14.5625Z" fill="#496CEA"/>
<path fill-rule="evenodd" clip-rule="evenodd" d="M13.1064 15.8161L12.4258 16.4967C12.5111 16.6547 12.595 16.8595 12.6808 17.1169C12.7628 17.3625 13.0281 17.4952 13.2738 17.4136L14.5924 16.9739C14.7142 16.9955 14.8309 17.0756 14.9538 17.168C15.1717 17.3316 15.3888 17.5509 15.6067 17.7689C15.753 17.9152 15.9775 17.9484 16.1599 17.8505C16.3422 17.753 16.4388 17.5472 16.3975 17.3447C16.3431 17.0756 16.3267 16.8417 16.3572 16.657C16.3605 16.6388 16.3638 16.6209 16.368 16.6041C16.6094 16.7634 16.8499 16.8295 17.0908 16.8464L17.1049 15.9061C16.982 15.8808 16.8597 15.8213 16.7383 15.6998C16.6506 15.6117 16.5311 15.5625 16.4069 15.5625C16.0356 15.5625 15.7563 15.7373 15.5795 16.0594C15.5303 16.1494 15.4905 16.2558 15.4614 16.3777C15.423 16.3505 15.385 16.3247 15.347 16.3003C15.0766 16.1273 14.8024 16.0313 14.5319 16.0313C14.4817 16.0313 14.4316 16.0392 14.3838 16.0552L13.4055 16.3814C13.3061 16.1466 13.2053 15.9609 13.1064 15.8161Z" fill="#496CEA"/>
<path fill-rule="evenodd" clip-rule="evenodd" d="M9.52375 12.5391L9.22656 13.4306L9.89875 13.5989C9.98172 13.8581 10.1519 14.0283 10.353 14.1553C10.4533 14.2186 10.5634 14.2692 10.6736 14.3138C10.7228 14.3339 10.7898 14.3634 10.8438 14.3873C10.8395 14.3972 10.8353 14.407 10.8311 14.4159C10.7753 14.527 10.7659 14.6559 10.8053 14.7736L11.2741 16.1799C11.3256 16.3341 11.4531 16.4508 11.6111 16.4878C11.7695 16.5253 11.9355 16.478 12.0503 16.3631C12.0963 16.3177 12.1408 16.2778 12.1867 16.2478C12.1966 16.2413 12.212 16.2333 12.2238 16.2277C12.2524 16.2558 12.3278 16.3336 12.3742 16.4091C12.43 16.5 12.4853 16.6097 12.5402 16.7405L13.2053 15.975C13.1247 15.8353 13.0441 15.7242 12.9658 15.638C12.7591 15.4111 12.5434 15.3136 12.3372 15.2888C12.2195 15.2747 12.0986 15.2859 11.9767 15.323L11.7508 14.6447C11.8361 14.4005 11.8244 14.2139 11.7808 14.0714C11.7142 13.8563 11.5619 13.6955 11.3383 13.5792C11.237 13.5267 11.1156 13.4831 10.9947 13.4325C10.9014 13.3931 10.7814 13.3645 10.7814 13.2192C10.7814 13.0041 10.6352 12.8166 10.4266 12.7645L9.52375 12.5391Z" fill="#496CEA"/>
<path fill-rule="evenodd" clip-rule="evenodd" d="M5.37563 11.4219L5.19141 12.3425C5.31516 12.3791 5.40938 12.4306 5.47922 12.4925C5.60438 12.6041 5.62453 12.7363 5.62547 12.7625C5.6461 13.1891 6.09422 13.2186 6.09422 13.2186C6.09422 13.2186 6.71391 13.2786 7.05563 14.3042C7.12829 14.5227 7.3486 14.6558 7.57548 14.6188C7.80235 14.5822 7.96923 14.3858 7.96923 14.1561C7.96923 13.9489 8.10657 13.6231 8.28048 13.3911C8.3236 13.3334 8.40189 13.265 8.43985 13.2336L9.44392 13.4844L9.74392 12.5933L8.55189 12.2952C8.51439 12.2858 8.47642 12.2811 8.43798 12.2811C8.1286 12.2811 7.79016 12.4822 7.53048 12.8286C7.49063 12.882 7.45219 12.9383 7.4161 12.9973C7.0936 12.598 6.7411 12.4208 6.48141 12.3425C6.41766 12.1719 6.30422 11.9717 6.10172 11.7922C5.93719 11.6455 5.7061 11.5053 5.37563 11.4219Z" fill="#496CEA"/>
<path fill-rule="evenodd" clip-rule="evenodd" d="M2.37184 12.4238L1.5459 12.8902C1.72309 13.3575 1.87496 13.9959 1.87496 15.0938C1.87496 15.3291 2.04934 15.5278 2.28278 15.5588C2.51621 15.5892 2.73606 15.442 2.79653 15.2147C2.85747 14.9864 2.88418 14.7113 2.91606 14.4511C2.93106 14.3316 2.96997 14.1689 2.99434 14.0747C3.02012 14.0841 3.04778 14.0949 3.07168 14.1066C3.217 14.1792 3.3895 14.1717 3.52778 14.0864C3.66606 14.0006 3.74997 13.8502 3.74997 13.6875C3.74997 13.6697 3.75184 13.6491 3.75419 13.6294C3.78325 13.6355 3.81606 13.6439 3.84091 13.6538C4.02559 13.7259 4.21591 13.8647 4.33966 14.0016C4.49669 14.1755 4.75825 14.2069 4.95185 14.0747C5.14544 13.9425 5.21153 13.6875 5.10653 13.478C4.94622 13.1569 4.84732 12.8367 4.81544 12.5672C4.80419 12.473 4.81216 12.3586 4.82013 12.2845C5.01232 12.2944 5.16372 12.3263 5.28138 12.3741L5.5781 11.4844C5.34607 11.3995 5.05497 11.3438 4.68747 11.3438C4.34763 11.3438 4.09169 11.5228 3.95575 11.8692C3.87794 12.0675 3.8545 12.3595 3.89622 12.6994C3.84466 12.6895 3.7945 12.683 3.74622 12.6806C3.44622 12.6652 3.19262 12.7688 3.01684 12.9961C2.98965 13.0308 2.96434 13.0692 2.9409 13.1123C2.81575 13.1081 2.7084 13.1302 2.61653 13.1658C2.54481 12.8733 2.4595 12.6342 2.37184 12.4238Z" fill="#496CEA"/>
<path fill-rule="evenodd" clip-rule="evenodd" d="M12.0499 6.05009C12.5023 5.59774 12.8196 5.55368 13.1632 5.50821C13.4927 5.46509 13.8382 5.41727 14.2718 5.20024C14.5034 5.08493 14.5971 4.80274 14.4813 4.57165C14.366 4.34008 14.0838 4.24633 13.8527 4.36211C13.4379 4.5693 13.1243 4.55993 12.8135 4.61196C12.3865 4.68274 11.9562 4.81821 11.3871 5.38727C11.2043 5.57009 11.2043 5.86728 11.3871 6.05009C11.5699 6.2329 11.8671 6.2329 12.0499 6.05009Z" fill="#496CEA"/>
</svg>
