<svg width="13" height="19" viewBox="0 0 13 19" fill="none" xmlns="http://www.w3.org/2000/svg">
<path d="M10.661 8.40112C10.3246 8.39173 10.0019 8.4832 9.72666 8.66196C9.43449 8.29539 8.99297 8.05444 8.49982 8.04093C8.15808 8.03129 7.83111 8.12573 7.55316 8.30986C7.25261 7.94697 6.7988 7.71541 6.29189 7.71541C6.10871 7.71541 5.93255 7.74562 5.76797 7.80136V6.42389C6.84214 5.84825 7.57479 4.71523 7.57479 3.41365C7.57483 1.53136 6.04348 0 4.16118 0C2.27888 0 0.747559 1.53136 0.747559 3.41362C0.747559 4.69055 1.45267 5.80535 2.49363 6.39068V10.1391C1.67021 10.1632 1.0077 10.8406 1.0077 11.6698V13.3776C1.0077 16.4778 3.52987 19 6.6301 19C9.73029 19 12.2525 16.4778 12.2525 13.3776V10.0601C12.2525 9.16939 11.5386 8.42516 10.661 8.40112ZM1.86084 3.41362C1.86084 2.14518 2.89278 1.11328 4.16118 1.11328C5.42957 1.11328 6.46155 2.14522 6.46155 3.41362C6.46155 4.05724 6.19559 4.63953 5.76801 5.0573V3.88624C5.76801 2.99554 5.05403 2.25128 4.17643 2.22719C3.73026 2.21446 3.30866 2.37942 2.98919 2.69028C2.66964 3.00118 2.49363 3.41796 2.49363 3.86375V4.99585C2.10183 4.58327 1.86084 4.02622 1.86084 3.41362ZM11.1392 13.3776C11.1392 15.8639 9.11643 17.8867 6.6301 17.8867C4.14377 17.8867 2.12098 15.8639 2.12098 13.3776V11.6698C2.12098 11.4393 2.30853 11.2517 2.53901 11.2517H3.60691V3.86375C3.60691 3.72111 3.66324 3.58773 3.76552 3.48821C3.86772 3.38875 4.00287 3.33643 4.14592 3.34007C4.42647 3.34778 4.65473 3.59278 4.65473 3.88624V9.3526H5.76801C5.76801 9.06371 6.00303 8.82869 6.29192 8.82869C6.58082 8.82869 6.81583 9.06371 6.81583 9.35472L6.81706 9.67961L7.93034 9.67749C7.93034 9.53481 7.98671 9.40144 8.08894 9.30191C8.19114 9.20246 8.32678 9.14969 8.46932 9.15381C8.7499 9.16149 8.97812 9.40652 8.97812 9.69998V10.0377H10.0914C10.0914 9.89507 10.1477 9.76169 10.25 9.66217C10.3522 9.56271 10.4864 9.51032 10.6304 9.51399C10.911 9.52171 11.1392 9.76671 11.1392 10.0602V13.3776H11.1392Z" fill="white"/>
</svg>
