<svg width="19" height="15" viewBox="0 0 19 15" fill="none" xmlns="http://www.w3.org/2000/svg">
<path d="M18.0024 4.44813C18.0024 4.43625 18.0024 4.42042 17.9985 4.40854C17.9945 4.39271 17.9866 4.37292 17.9826 4.35708C17.9747 4.33729 17.9707 4.31354 17.9628 4.29375V4.28979L16.3795 0.727292C16.2805 0.513542 16.0668 0.375 15.8332 0.375H3.16658C2.93304 0.375 2.71929 0.513542 2.62429 0.727292L1.04095 4.28979V4.29375C1.03304 4.31354 1.02908 4.33333 1.02116 4.35312C1.0172 4.36896 1.00929 4.38875 1.00533 4.40458C1.00137 4.41646 1.00137 4.42833 1.00137 4.44021C0.99741 4.46792 0.993452 4.49563 0.993452 4.51937V4.52333V14.0233C0.989494 14.3598 1.2547 14.625 1.58324 14.625H17.4166C17.7451 14.625 18.0103 14.3598 18.0103 14.0312V4.53125V4.52729C18.0103 4.49958 18.0064 4.47188 18.0024 4.44813ZM3.55054 1.5625H15.4453L16.5022 3.9375H2.49762L3.55054 1.5625ZM10.8853 5.125V8.4025L9.72158 7.93542C9.57908 7.88 9.42074 7.88 9.2822 7.93542L8.11845 8.4025V5.125H10.8853ZM16.8228 13.4375H2.17699V5.125H6.92699V9.28125C6.92699 9.47917 7.02595 9.66125 7.18824 9.77208C7.35054 9.88292 7.56033 9.90667 7.74241 9.83146L9.49991 9.13083L11.2574 9.83542C11.3287 9.85917 11.4039 9.875 11.4791 9.875C11.5978 9.875 11.7126 9.83938 11.8116 9.77208C11.9739 9.66125 12.0728 9.47917 12.0728 9.28125V5.125H16.8228V13.4375Z" fill="#2A2F44"/>
</svg>
