<svg width="19" height="19" viewBox="0 0 19 19" fill="none" xmlns="http://www.w3.org/2000/svg">
<path d="M17.8306 14.0432C21.2396 7.80738 16.7568 0.321027 10.048 0.0239571C4.43425 -0.297999 -0.137298 4.2388 0.00315204 9.74724C0.00322622 9.75095 0.00359709 9.76211 0.00341166 9.75841C0.13255 12.341 1.03496 14.5758 2.99503 16.4193C7.52259 20.6738 14.8526 19.4906 17.8306 14.0432ZM9.27727 17.8765C5.04315 17.7766 1.52429 14.4773 1.14663 10.2516C1.81213 10.188 2.45956 10.0622 3.08311 9.88005C3.28068 13.2439 6.07952 15.9202 9.49212 15.9202C13.0324 15.9202 15.9127 13.0399 15.9127 9.49961C15.9127 6.15914 13.3483 3.40681 10.0849 3.10666C10.5059 1.82396 10.4848 1.17853 10.5267 1.1839C14.0998 1.62343 17.0596 4.35603 17.7303 7.96478C18.7007 13.1911 14.6074 18.0126 9.27727 17.8765ZM9.65868 4.19455C12.5087 4.28289 14.8 6.62856 14.8 9.49961C14.8 12.4264 12.4189 14.8076 9.49208 14.8076C6.70162 14.8076 4.2293 12.6122 4.18365 9.49041C6.60494 8.47681 8.56571 6.5802 9.65868 4.19455ZM2.14966 8.97048L9.20666 2.14302C8.34004 5.56371 5.59835 8.21624 2.14966 8.97048ZM8.61674 1.16566L1.19188 8.34901C1.71507 4.55593 4.7861 1.56509 8.61674 1.16566Z" fill="#2A2F44"/>
<path d="M11.7259 8.94141H7.25797C6.95074 8.94141 6.70166 9.19049 6.70166 9.49772C6.70166 9.80495 6.95074 10.054 7.25797 10.054H11.7259C12.0332 10.054 12.2822 9.80495 12.2822 9.49772C12.2822 9.19049 12.0332 8.94141 11.7259 8.94141Z" fill="#2A2F44"/>
<path d="M10.0505 7.82356H11.726C12.0332 7.82356 12.2823 7.57448 12.2823 7.26725C12.2823 6.96002 12.0332 6.71094 11.726 6.71094H10.0505C9.74322 6.71094 9.49414 6.96002 9.49414 7.26725C9.49414 7.57448 9.74322 7.82356 10.0505 7.82356Z" fill="#2A2F44"/>
<path d="M11.7259 11.1758H7.25797C6.95074 11.1758 6.70166 11.4249 6.70166 11.7321C6.70166 12.0393 6.95074 12.2884 7.25797 12.2884H11.7259C12.0332 12.2884 12.2822 12.0393 12.2822 11.7321C12.2822 11.4249 12.0332 11.1758 11.7259 11.1758Z" fill="#2A2F44"/>
</svg>
