<svg width="35" height="27" viewBox="0 0 35 27" fill="none" xmlns="http://www.w3.org/2000/svg">
<path d="M25.9766 9.2704V16.0977C25.9766 16.8528 26.5887 17.4648 27.3437 17.4648H34.3164" stroke="#496CEA" stroke-miterlimit="10" stroke-linecap="round" stroke-linejoin="round"/>
<path d="M31.8555 23.4805C31.8555 24.9906 30.6312 26.2148 29.1211 26.2148C27.611 26.2148 26.3867 24.9906 26.3867 23.4805C26.3867 21.9703 27.611 20.7461 29.1211 20.7461C30.6312 20.7461 31.8555 21.9703 31.8555 23.4805Z" stroke="#496CEA" stroke-miterlimit="10" stroke-linecap="round" stroke-linejoin="round"/>
<path d="M14.6232 22.3867H20.6445C21.5506 22.3867 22.2852 21.6522 22.2852 20.7461V2.42578C22.2852 1.51968 21.5506 0.785159 20.6445 0.785159H2.32422C1.41812 0.785159 0.683594 1.51968 0.683594 2.42578V17.7685" stroke="#496CEA" stroke-miterlimit="10" stroke-linecap="round" stroke-linejoin="round"/>
<path d="M0.683594 16.7021V20.7461C0.683594 21.6522 1.41812 22.3867 2.32422 22.3867H3.68573" stroke="#496CEA" stroke-miterlimit="10" stroke-linecap="round" stroke-linejoin="round"/>
<path d="M19.0035 13.9102H13.207" stroke="#496CEA" stroke-miterlimit="10" stroke-linecap="round" stroke-linejoin="round"/>
<path d="M19.0042 16.5547H10.9746" stroke="#496CEA" stroke-miterlimit="10" stroke-linecap="round" stroke-linejoin="round"/>
<path d="M14.623 23.4805C14.623 24.9906 13.3988 26.2148 11.8887 26.2148C10.3785 26.2148 9.1543 24.9906 9.1543 23.4805C9.1543 21.9703 10.3785 20.7461 11.8887 20.7461C13.3988 20.7461 14.623 21.9703 14.623 23.4805Z" stroke="#496CEA" stroke-miterlimit="10" stroke-linecap="round" stroke-linejoin="round"/>
<path d="M9.1543 23.4805C9.1543 24.9906 7.93005 26.2148 6.41992 26.2148C4.90979 26.2148 3.68555 24.9906 3.68555 23.4805C3.68555 21.9703 4.90979 20.7461 6.41992 20.7461C7.93005 20.7461 9.1543 21.9703 9.1543 23.4805Z" stroke="#496CEA" stroke-miterlimit="10" stroke-linecap="round" stroke-linejoin="round"/>
<path d="M8.07422 0.784483H14.8957V7.87109L13.1904 6.16566L11.485 7.87109L9.77958 6.16566L8.07422 7.87109V0.784483Z" stroke="#496CEA" stroke-miterlimit="10" stroke-linecap="round" stroke-linejoin="round"/>
<path d="M11.8889 26.2148H0.683594" stroke="#496CEA" stroke-miterlimit="10" stroke-linecap="round" stroke-linejoin="round"/>
<path d="M29.1211 26.2148H22.0801" stroke="#496CEA" stroke-miterlimit="10" stroke-linecap="round" stroke-linejoin="round"/>
<path d="M27.3438 17.4648L31.7871 13.0215" stroke="#496CEA" stroke-miterlimit="10" stroke-linecap="round" stroke-linejoin="round"/>
<path d="M25.9766 14.4102L29.6338 10.7529" stroke="#496CEA" stroke-miterlimit="10" stroke-linecap="round" stroke-linejoin="round"/>
<path d="M31.2402 22.3867H34.3164V15.0039L28.597 9.2704H22.2852" stroke="#496CEA" stroke-miterlimit="10" stroke-linecap="round" stroke-linejoin="round"/>
<path d="M19.4824 22.3867H26.9792" stroke="#496CEA" stroke-miterlimit="10" stroke-linecap="round" stroke-linejoin="round"/>
</svg>
