<svg width="26" height="27" viewBox="0 0 26 27" fill="none" xmlns="http://www.w3.org/2000/svg">
<path d="M12.7461 19.6914V15.1963L15.7852 19.5971C15.8415 19.6786 15.9019 19.6386 15.9019 19.5396L15.8598 15.1879" stroke="#496CEA" stroke-miterlimit="10" stroke-linecap="round" stroke-linejoin="round"/>
<path d="M4.82096 16.2248C4.82096 16.7971 4.35699 17.261 3.78469 17.261C3.50086 17.261 2.47656 17.2656 2.47656 17.2656V16.2248V15.1885H3.78469C4.35699 15.1885 4.82096 15.6525 4.82096 16.2248Z" stroke="#496CEA" stroke-miterlimit="10" stroke-linecap="round" stroke-linejoin="round"/>
<path d="M5.22538 18.4738C5.22538 19.1433 4.68266 19.686 4.01317 19.686C3.68116 19.686 2.47656 19.6914 2.47656 19.6914V18.4738V17.2616H4.01317C4.68266 17.2616 5.22538 17.8044 5.22538 18.4738Z" stroke="#496CEA" stroke-miterlimit="10" stroke-linecap="round" stroke-linejoin="round"/>
<path d="M25.3753 15.6509C25.3753 15.6509 24.5672 14.9715 23.6142 15.2587C22.7392 15.5222 22.6168 16.5312 23.2499 16.9439C23.2499 16.9439 23.871 17.221 24.56 17.4751C26.2185 18.0869 25.5041 19.6914 24.169 19.6914C23.5004 19.6914 22.9393 19.3986 22.5996 19.0238" stroke="#496CEA" stroke-miterlimit="10" stroke-linecap="round" stroke-linejoin="round"/>
<path d="M17.8047 15.1879V18.2868C17.8047 18.8145 18.0665 19.1699 18.5112 19.454C18.7278 19.5923 19.0013 19.6909 19.3413 19.6914C19.6357 19.6917 19.8818 19.6236 20.0853 19.5211C20.6035 19.2601 20.934 18.8638 20.934 18.2835V15.1879" stroke="#496CEA" stroke-miterlimit="10" stroke-linecap="round" stroke-linejoin="round"/>
<path d="M11.0699 17.4396C11.0699 18.6832 10.0618 19.6914 8.81816 19.6914C7.57457 19.6914 6.56641 18.6832 6.56641 17.4396C6.56641 16.1961 7.57457 15.1879 8.81816 15.1879C10.0618 15.1879 11.0699 16.1961 11.0699 17.4396Z" stroke="#496CEA" stroke-miterlimit="10" stroke-linecap="round" stroke-linejoin="round"/>
<path d="M16.3618 26.6797C19.1947 26.0834 21.6406 24.437 23.2725 22.1655H4.72656C6.34761 24.422 8.7718 26.0622 11.5809 26.6684" stroke="#496CEA" stroke-miterlimit="10" stroke-linecap="round" stroke-linejoin="round"/>
<path d="M25.0974 12.8477H2.9043C3.24741 11.4152 3.86138 10.0875 4.68793 8.92175C4.68853 8.92115 4.68908 8.92005 4.68968 8.91945V8.92744L6.66942 8.28043L8.64922 8.92744L8.64577 6.8445L9.87313 5.16111L10.3349 4.70851L11.4539 6.24365L11.4499 8.92744L14.0008 8.094L16.5518 8.92744L16.5478 6.24365L17.6668 4.70851L18.1285 5.16111L19.3558 6.8445L19.3524 8.92744L21.3322 8.28043L23.312 8.92744V8.91945C23.3143 8.92235 23.3166 8.92574 23.3183 8.92859C24.1426 10.0926 24.7547 11.418 25.0974 12.8477Z" stroke="#496CEA" stroke-miterlimit="10" stroke-linecap="round" stroke-linejoin="round"/>
<path d="M14.001 1.07006L15.5749 3.244L18.1289 4.06918L16.5477 6.23792L16.5521 8.92188L14.001 8.08827L11.4498 8.92188L11.4542 6.23792L9.87305 4.06918L12.427 3.244L14.001 1.07006Z" stroke="#496CEA" stroke-miterlimit="10" stroke-linecap="round" stroke-linejoin="round"/>
<path d="M6.66838 2.82837L7.88988 4.51548L9.87192 5.15587L8.64484 6.83894L8.64829 8.92188L6.66838 8.27492L4.68848 8.92188L4.69192 6.83894L3.46484 5.15587L5.44688 4.51548L6.66838 2.82837Z" stroke="#496CEA" stroke-miterlimit="10" stroke-linecap="round" stroke-linejoin="round"/>
<path d="M21.3305 2.82837L22.552 4.51548L24.534 5.15587L23.307 6.83894L23.3104 8.92188L21.3305 8.27492L19.3506 8.92188L19.354 6.83894L18.127 5.15587L20.109 4.51548L21.3305 2.82837Z" stroke="#496CEA" stroke-miterlimit="10" stroke-linecap="round" stroke-linejoin="round"/>
<path d="M0.546875 12.8477H27.4531" stroke="#496CEA" stroke-miterlimit="10" stroke-linecap="round" stroke-linejoin="round"/>
<path d="M27.4531 22.1641H0.546875" stroke="#496CEA" stroke-miterlimit="10" stroke-linecap="round" stroke-linejoin="round"/>
<path d="M4.6895 8.91246V8.92188L4.6875 8.91517C4.68814 8.91446 4.68885 8.91317 4.6895 8.91246Z" stroke="#496CEA" stroke-miterlimit="10" stroke-linecap="round" stroke-linejoin="round"/>
<path d="M23.3192 8.92578L23.3125 8.92456V8.91609C23.3149 8.91917 23.3174 8.92276 23.3192 8.92578Z" stroke="#496CEA" stroke-miterlimit="10" stroke-linecap="round" stroke-linejoin="round"/>
</svg>
