<svg width="23" height="27" viewBox="0 0 23 27" fill="none" xmlns="http://www.w3.org/2000/svg">
<path d="M9.56554 19.9024L5.77219 26.4727L4.84396 23.0086L1.36719 23.9402L5.00702 17.6359" stroke="#496CEA" stroke-miterlimit="10" stroke-linecap="round" stroke-linejoin="round"/>
<path d="M17.9796 17.6113L21.6336 23.9402L18.1568 23.0086L17.2286 26.4727L13.416 19.8692" stroke="#496CEA" stroke-miterlimit="10" stroke-linecap="round" stroke-linejoin="round"/>
<path d="M12.4412 0.719631C13.492 0.289583 14.7006 0.613424 15.3955 1.51123C15.8011 2.0352 16.3963 2.37881 17.0528 2.46804C18.1778 2.62102 19.0626 3.50575 19.2156 4.63078C19.3048 5.28732 19.6484 5.88248 20.1724 6.28806C21.0702 6.983 21.394 8.19162 20.964 9.2424C20.713 9.8556 20.713 10.5428 20.964 11.156C21.394 12.2068 21.0702 13.4154 20.1724 14.1104C19.6484 14.5159 19.3048 15.1111 19.2156 15.7676V15.7676C19.0626 16.8926 18.1778 17.7774 17.0528 17.9304C16.3963 18.0196 15.8011 18.3632 15.3955 18.8871C14.7006 19.785 13.492 20.1088 12.4412 19.6788C11.828 19.4278 11.1408 19.4278 10.5276 19.6788C9.47678 20.1088 8.26822 19.785 7.57323 18.8871C7.16765 18.3632 6.57249 18.0196 5.916 17.9304C4.79102 17.7774 3.90619 16.8926 3.75326 15.7676V15.7676C3.66398 15.1111 3.32036 14.5159 2.79644 14.1104C1.89859 13.4154 1.57475 12.2068 2.0048 11.156C2.25576 10.5428 2.25576 9.8556 2.0048 9.2424C1.57475 8.19162 1.89859 6.983 2.79644 6.28806C3.32036 5.88248 3.66398 5.28732 3.75326 4.63078C3.90619 3.50575 4.79096 2.62102 5.91595 2.46804C6.57244 2.37881 7.16765 2.0352 7.57323 1.51123C8.26822 0.613424 9.47678 0.289583 10.5276 0.719631C11.1408 0.970594 11.828 0.970594 12.4412 0.719631Z" stroke="#496CEA" stroke-miterlimit="10" stroke-linecap="round" stroke-linejoin="round"/>
<path d="M10.8975 13.3398L7.82031 10.2626L9.46109 8.62191L10.8975 10.0584L13.5415 7.41445L15.1822 9.05518L10.8975 13.3398Z" stroke="#496CEA" stroke-miterlimit="10" stroke-linecap="round" stroke-linejoin="round"/>
<path d="M9.16846 4.49021C6.82737 5.41855 5.17188 7.70343 5.17188 10.375C5.17188 13.8699 8.00508 16.7031 11.5 16.7031C14.9949 16.7031 17.8281 13.8699 17.8281 10.375C17.8281 7.70343 16.1726 5.41855 13.8316 4.49021" stroke="#496CEA" stroke-miterlimit="10" stroke-linecap="round" stroke-linejoin="round"/>
</svg>
