<svg width="27" height="27" viewBox="0 0 27 27" fill="none" xmlns="http://www.w3.org/2000/svg">
<g clip-path="url(#clip0_571_22109)">
<path d="M24.2962 2.62659C24.2429 2.58736 24.1811 2.56122 24.1158 2.5503C24.0505 2.53938 23.9835 2.54398 23.9203 2.56373C22.1623 3.02221 20.3197 3.05028 18.5486 2.64558C16.7537 2.27027 15.0988 1.40271 13.7692 0.140062C13.6851 0.0537321 13.5707 0.00350216 13.4502 0C13.3901 0.000720761 13.3309 0.0142668 13.2765 0.0397315C13.2221 0.0651963 13.1737 0.101992 13.1347 0.147656C13.1195 0.164953 11.5868 1.91489 8.45184 2.64516C6.68057 3.04982 4.83788 3.02189 3.07969 2.56373C3.0165 2.54386 2.94952 2.53915 2.88417 2.54998C2.81882 2.5608 2.75693 2.58687 2.70353 2.62606C2.65013 2.66525 2.6067 2.71646 2.57677 2.77556C2.54684 2.83465 2.53125 2.89996 2.53125 2.9662V17.5593C2.53424 18.6733 2.84086 19.7653 3.41814 20.7181C3.99541 21.6708 4.82149 22.4481 5.80753 22.9665L13.2562 26.9502C13.3171 26.9826 13.3852 26.9996 13.4542 26.9996C13.5233 26.9996 13.5913 26.9826 13.6523 26.9502L21.1916 22.9669C22.1779 22.4486 23.0042 21.6713 23.5816 20.7185C24.159 19.7656 24.4658 18.6734 24.4688 17.5593V2.9662C24.4686 2.90003 24.453 2.83481 24.423 2.77582C24.393 2.71682 24.3496 2.6657 24.2962 2.62659ZM23.625 17.5593C23.6221 18.52 23.3574 19.4617 22.8594 20.2832C22.3614 21.1047 21.6488 21.7749 20.7984 22.2218L13.4578 26.1001L6.20578 22.2223C5.35456 21.7759 4.64117 21.1058 4.14238 20.2842C3.64359 19.4625 3.37828 18.5205 3.375 17.5593V3.50873C5.1133 3.8765 6.91076 3.8621 8.64295 3.46655C10.4349 3.0831 12.0959 2.239 13.462 1.01756C14.863 2.2302 16.5455 3.07246 18.3558 3.46739C20.0884 3.86288 21.8864 3.87699 23.625 3.50873V17.5593Z" fill="#496CEA"/>
<path d="M13.7206 2.3101C13.6481 2.25783 13.5609 2.22995 13.4715 2.23048C13.3821 2.23101 13.2951 2.25992 13.2233 2.31305C11.9101 3.26317 10.4173 3.93608 8.83575 4.2908C7.47404 4.60018 6.07179 4.69103 4.68155 4.55996C4.62309 4.55429 4.56409 4.56102 4.5084 4.5797C4.45272 4.59838 4.4016 4.6286 4.35839 4.66838C4.31472 4.70769 4.27973 4.75569 4.25569 4.8093C4.23164 4.86292 4.21906 4.92097 4.21875 4.97972V17.5609C4.22244 18.3692 4.44639 19.1612 4.86651 19.8517C5.28664 20.5423 5.88705 21.1052 6.60319 21.4801L13.2612 25.0407C13.3223 25.0735 13.3906 25.0906 13.4599 25.0905C13.5287 25.0904 13.5965 25.0736 13.6574 25.0416L20.3993 21.4788C21.115 21.104 21.715 20.5411 22.1347 19.8508C22.5544 19.1605 22.7779 18.3688 22.7813 17.5609V8.46483C22.7813 8.35295 22.7368 8.24564 22.6577 8.16652C22.5786 8.08741 22.4713 8.04296 22.3594 8.04296C22.2475 8.04296 22.1402 8.08741 22.0611 8.16652C21.9819 8.24564 21.9375 8.35295 21.9375 8.46483V17.5609C21.934 18.2155 21.7521 18.8568 21.4115 19.4159C21.0708 19.9749 20.5842 20.4306 20.004 20.7338L13.4612 24.1906L7.00017 20.7355C6.41909 20.4325 5.93162 19.9768 5.5902 19.4174C5.24878 18.8581 5.06634 18.2162 5.0625 17.5609V5.43577C6.39305 5.51825 7.72855 5.40928 9.02813 5.11219C10.6213 4.75201 12.1316 4.09277 13.4789 3.16946C14.8459 4.0878 16.3704 4.74637 17.9761 5.11219C19.2757 5.40936 20.6112 5.51833 21.9417 5.43577V6.73388C21.9417 6.84577 21.9862 6.95307 22.0653 7.03219C22.1444 7.11131 22.2517 7.15576 22.3636 7.15576C22.4755 7.15576 22.5828 7.11131 22.6619 7.03219C22.741 6.95307 22.7855 6.84577 22.7855 6.73388V4.97972C22.7854 4.92102 22.7731 4.86297 22.7494 4.80929C22.7256 4.7556 22.6909 4.70747 22.6475 4.66796C22.6044 4.62798 22.5533 4.59763 22.4976 4.57893C22.4419 4.56024 22.3828 4.55363 22.3244 4.55954C20.9341 4.69068 19.5319 4.59983 18.1702 4.29038C16.5711 3.92947 15.0591 3.25652 13.7206 2.3101Z" fill="#496CEA"/>
<path d="M20.6721 12.2344C20.6721 11.8987 20.5387 11.5768 20.3014 11.3394C20.064 11.1021 19.7421 10.9688 19.4064 10.9688H15.6914C16.2727 10.222 17.0047 8.97792 16.8727 7.55958C16.7845 6.58589 16.1749 5.90625 15.3915 5.90625C14.1916 5.90625 13.9858 7.07316 13.9081 7.51233C13.8493 7.81366 13.7231 8.09777 13.5388 8.34334C13.3545 8.5889 13.1171 8.78956 12.8442 8.93025C12.6332 9.06947 12.4708 9.16059 12.3261 9.24033C12.0259 9.39108 11.7518 9.58907 11.5144 9.82673C11.1769 10.1585 10.8974 10.5445 10.6875 10.9688H9.70331V10.5638C9.70331 10.4519 9.65887 10.3446 9.57975 10.2654C9.50063 10.1863 9.39333 10.1419 9.28144 10.1419H6.72656C6.61467 10.1419 6.50737 10.1863 6.42825 10.2654C6.34914 10.3446 6.30469 10.4519 6.30469 10.5638V17.2716C6.30469 17.3835 6.34914 17.4908 6.42825 17.5699C6.50737 17.649 6.61467 17.6934 6.72656 17.6934H9.28144C9.39333 17.6934 9.50063 17.649 9.57975 17.5699C9.65887 17.4908 9.70331 17.3835 9.70331 17.2716V16.875H10.8209L12.8146 18.4701C12.8895 18.53 12.9825 18.5625 13.0783 18.5625H18.1408C18.3618 18.5625 18.579 18.5046 18.7707 18.3946C18.9624 18.2846 19.1219 18.1264 19.2334 17.9356C19.345 17.7448 19.4046 17.5281 19.4064 17.3071C19.4082 17.0861 19.352 16.8685 19.2436 16.6759C19.5163 16.5018 19.7119 16.2299 19.7904 15.9161C19.8688 15.6022 19.8241 15.2703 19.6655 14.9884C19.9381 14.8143 20.1338 14.5424 20.2122 14.2286C20.2907 13.9147 20.246 13.5828 20.0873 13.3009C20.2665 13.1865 20.414 13.0289 20.5162 12.8425C20.6184 12.6561 20.672 12.4469 20.6721 12.2344ZM8.85956 16.8493H7.14844V10.9856H8.85956V16.8493ZM19.4064 12.6562H18.9846C18.8727 12.6562 18.7654 12.7007 18.6863 12.7798C18.6071 12.8589 18.5627 12.9662 18.5627 13.0781C18.5627 13.19 18.6071 13.2973 18.6863 13.3764C18.7654 13.4556 18.8727 13.5 18.9846 13.5C19.0965 13.5 19.2038 13.5444 19.2829 13.6236C19.362 13.7027 19.4064 13.81 19.4064 13.9219C19.4064 14.0338 19.362 14.1411 19.2829 14.2202C19.2038 14.2993 19.0965 14.3438 18.9846 14.3438H18.5627C18.4508 14.3438 18.3435 14.3882 18.2644 14.4673C18.1853 14.5464 18.1408 14.6537 18.1408 14.7656C18.1408 14.8775 18.1853 14.9848 18.2644 15.0639C18.3435 15.1431 18.4508 15.1875 18.5627 15.1875C18.6746 15.1875 18.7819 15.2319 18.861 15.3111C18.9401 15.3902 18.9846 15.4975 18.9846 15.6094C18.9846 15.7213 18.9401 15.8286 18.861 15.9077C18.7819 15.9868 18.6746 16.0312 18.5627 16.0312H18.1408C18.0289 16.0312 17.9216 16.0757 17.8425 16.1548C17.7634 16.2339 17.7189 16.3412 17.7189 16.4531C17.7189 16.565 17.7634 16.6723 17.8425 16.7514C17.9216 16.8306 18.0289 16.875 18.1408 16.875C18.2527 16.875 18.36 16.9194 18.4391 16.9986C18.5182 17.0777 18.5627 17.185 18.5627 17.2969C18.5627 17.4088 18.5182 17.5161 18.4391 17.5952C18.36 17.6743 18.2527 17.7188 18.1408 17.7188H13.2264L11.2326 16.1236C11.1578 16.0638 11.0648 16.0312 10.9689 16.0312H9.70331V11.8125H10.9689C11.0593 11.8119 11.1472 11.7826 11.2197 11.7287C11.2923 11.6748 11.3459 11.5993 11.3727 11.513C11.5358 11.0999 11.7878 10.7279 12.111 10.4233C12.2935 10.2422 12.5042 10.0919 12.7349 9.97819C12.8961 9.88917 13.0787 9.78792 13.3125 9.63225C13.6818 9.42977 14.0015 9.14763 14.2483 8.80628C14.495 8.46493 14.6627 8.07293 14.7392 7.65872C14.8755 6.88584 15.0582 6.75 15.3915 6.75C15.7247 6.75 15.9859 7.1145 16.034 7.63594C16.2027 9.46561 14.4781 11.0616 14.4604 11.0772C14.3969 11.1344 14.3523 11.2095 14.3324 11.2926C14.3125 11.3757 14.3184 11.4629 14.3492 11.5426C14.38 11.6223 14.4342 11.6908 14.5048 11.739C14.5753 11.7872 14.6589 11.8128 14.7443 11.8125H19.4064C19.5183 11.8125 19.6256 11.8569 19.7047 11.9361C19.7839 12.0152 19.8283 12.1225 19.8283 12.2344C19.8283 12.3463 19.7839 12.4536 19.7047 12.5327C19.6256 12.6118 19.5183 12.6562 19.4064 12.6562Z" fill="#496CEA"/>
</g>
<defs>
<clipPath id="clip0_571_22109">
<rect width="27" height="27" fill="white"/>
</clipPath>
</defs>
</svg>
