<svg width="172" height="49" viewBox="0 0 172 49" fill="none" xmlns="http://www.w3.org/2000/svg">
<path d="M18.247 26.5781H12.2241C11.3965 26.5781 10.6028 26.9069 10.0175 27.4921C9.43229 28.0774 9.10352 28.8711 9.10352 29.6988V35.7216C9.10352 36.5492 9.43229 37.3429 10.0175 37.9282C10.6028 38.5134 11.3965 38.8422 12.2241 38.8422H18.247C19.0746 38.8422 19.8683 38.5134 20.4536 37.9282C21.0388 37.3429 21.3676 36.5492 21.3676 35.7216V29.73C21.3717 29.3175 21.294 28.9084 21.1391 28.5262C20.9841 28.1439 20.7549 27.7962 20.4647 27.5031C20.1745 27.2101 19.8291 26.9774 19.4484 26.8186C19.0678 26.6598 18.6594 26.5781 18.247 26.5781Z" fill="#496CEA"/>
<path d="M34.5885 38.7566H28.5553C27.758 38.7566 26.9933 38.4398 26.4296 37.8761C25.8658 37.3123 25.5491 36.5477 25.5491 35.7504V29.7275C25.5491 28.9293 25.8655 28.1636 26.4289 27.5981C26.9924 27.0327 27.757 26.7137 28.5553 26.7109H34.5885C35.3867 26.7137 36.1514 27.0327 36.7148 27.5981C37.2783 28.1636 37.5947 28.9293 37.5947 29.7275V35.7504C37.5947 36.5477 37.278 37.3123 36.7142 37.8761C36.1504 38.4398 35.3858 38.7566 34.5885 38.7566ZM28.5553 28.7914C28.4328 28.7913 28.3116 28.8156 28.1986 28.8628C28.0856 28.91 27.983 28.9791 27.8969 29.0662C27.8108 29.1532 27.7429 29.2565 27.697 29.3701C27.651 29.4836 27.6281 29.6051 27.6295 29.7275V35.7504C27.6295 35.9959 27.727 36.2314 27.9007 36.405C28.0743 36.5786 28.3097 36.6761 28.5553 36.6761H34.5885C34.834 36.6761 35.0695 36.5786 35.2431 36.405C35.4167 36.2314 35.5143 35.9959 35.5143 35.7504V29.7275C35.5157 29.6051 35.4927 29.4836 35.4468 29.3701C35.4009 29.2565 35.3329 29.1532 35.2468 29.0662C35.1607 28.9791 35.0582 28.91 34.9452 28.8628C34.8322 28.8156 34.711 28.7913 34.5885 28.7914H28.5553Z" fill="#FFC238"/>
<path d="M18.2469 22.1146H12.2137C11.4155 22.1119 10.6509 21.7928 10.0874 21.2274C9.52391 20.662 9.20751 19.8963 9.20752 19.098V13.0752C9.20751 12.2769 9.52391 11.5112 10.0874 10.9458C10.6509 10.3804 11.4155 10.0613 12.2137 10.0586H18.2469C19.0452 10.0613 19.8098 10.3804 20.3733 10.9458C20.9368 11.5112 21.2532 12.2769 21.2531 13.0752V19.098C21.2532 19.8963 20.9368 20.662 20.3733 21.2274C19.8098 21.7928 19.0452 22.1119 18.2469 22.1146ZM12.2137 12.139C11.9672 12.1418 11.7318 12.2416 11.5585 12.4169C11.3851 12.5921 11.2879 12.8287 11.2879 13.0752V19.098C11.2879 19.3445 11.3851 19.5811 11.5585 19.7563C11.7318 19.9316 11.9672 20.0315 12.2137 20.0342H18.2469C18.4934 20.0315 18.7289 19.9316 18.9022 19.7563C19.0755 19.5811 19.1727 19.3445 19.1727 19.098V13.0752C19.1727 12.8287 19.0755 12.5921 18.9022 12.4169C18.7289 12.2416 18.4934 12.1418 18.2469 12.139H12.2137Z" fill="#FFC238"/>
<path d="M46.9568 16.5486H44.8764V7.45715C44.8764 3.29632 41.2668 3.09868 41.1108 3.09868H31.26V1.03906H41.1316C41.9383 1.0695 42.7308 1.2607 43.4627 1.60145C44.1945 1.9422 44.851 2.42564 45.3935 3.02342C45.9361 3.62121 46.3538 4.3213 46.6223 5.08264C46.8907 5.84399 47.0044 6.65128 46.9568 7.45715V16.5486Z" fill="#FFC238"/>
<path d="M31.2603 47.6514V45.571H41.1318C41.6682 45.5455 42.1938 45.411 42.6764 45.1756C43.1591 44.9403 43.5887 44.6091 43.9392 44.2022C44.2896 43.7953 44.5534 43.3213 44.7146 42.8091C44.8758 42.2968 44.9309 41.7572 44.8766 41.2229V32.1211H46.957V41.2229C47.0076 42.0266 46.8973 42.8323 46.6326 43.5928C46.3679 44.3533 45.9542 45.0534 45.4156 45.652C44.877 46.2507 44.2244 46.7359 43.496 47.0792C42.7676 47.4225 41.978 47.617 41.1734 47.6514H31.2603Z" fill="#496CEA"/>
<path d="M2.09269 16.5486H0.012271V7.45715C-0.0368369 6.65432 0.074528 5.84975 0.33986 5.09044C0.605192 4.33113 1.01917 3.63231 1.55762 3.03479C2.09606 2.43727 2.74818 1.95304 3.47587 1.61038C4.20356 1.26771 4.99224 1.07349 5.79584 1.03906H15.7506V3.11948H5.82704C5.2911 3.14772 4.76648 3.28452 4.28499 3.52157C3.8035 3.75863 3.37517 4.09101 3.02598 4.49856C2.67679 4.90611 2.41402 5.38034 2.25359 5.89249C2.09316 6.40463 2.03842 6.94403 2.09269 7.47796V16.5486Z" fill="#496CEA"/>
<path d="M15.7502 47.6514H5.82663C5.01942 47.6211 4.22645 47.4295 3.49442 47.088C2.76239 46.7465 2.1061 46.2619 1.56423 45.6628C1.02236 45.0638 0.605851 44.3623 0.339244 43.5998C0.0726378 42.8373 -0.0386762 42.0291 0.0118595 41.2229V32.1211H2.09228V41.2229C2.03947 41.7585 2.0963 42.2993 2.25932 42.8122C2.42233 43.3252 2.68812 43.7995 3.04046 44.2064C3.3928 44.6132 3.82432 44.944 4.3087 45.1786C4.79308 45.4133 5.32017 45.5468 5.85784 45.571H15.7502V47.6514Z" fill="#FFC238"/>
<path d="M34.89 9.92188H28.8672C28.0396 9.92188 27.2458 10.2507 26.6606 10.8359C26.0754 11.4211 25.7466 12.2149 25.7466 13.0425V19.0653C25.7466 19.893 26.0754 20.6867 26.6606 21.2719C27.2458 21.8572 28.0396 22.1859 28.8672 22.1859H34.89C35.7177 22.1859 36.5114 21.8572 37.0966 21.2719C37.6819 20.6867 38.0107 19.893 38.0107 19.0653V13.0737C38.0148 12.6613 37.9371 12.2521 37.7821 11.8699C37.6271 11.4877 37.3979 11.14 37.1077 10.8469C36.8176 10.5538 36.4721 10.3211 36.0915 10.1624C35.7108 10.0036 35.3025 9.92185 34.89 9.92188Z" fill="#496CEA"/>
<path d="M24.072 24.0992C21.2322 26.3253 21.4506 29.4979 21.4506 31.1935V32.5769C18.5693 30.7774 13.5867 26.8766 16.6761 26.5645C20.4 26.19 21.4506 25.7948 23.7599 23.7976C25.6115 22.1852 25.8403 19.1166 25.7675 17.7852L32.5497 22.2477C30.9582 22.2477 26.8597 21.842 24.072 24.0992Z" fill="#496CEA"/>
<path d="M56.1313 25.3906V11.4414H58.399V23.4038H61.8941V11.4414H64.1514V23.4038H67.6465V11.4414H69.9037V25.3906H56.1313Z" fill="#2A2F44"/>
<path d="M74.9488 25.3909V17.1212H72.0466V15.332H79.973V17.1212H77.1228V25.3909H74.9488Z" fill="#2A2F44"/>
<path d="M82.0327 29.3851V15.3318H84.1859V15.8832C84.4931 15.6329 84.8466 15.4455 85.2262 15.3318C85.6302 15.1864 86.0555 15.1091 86.4848 15.103C86.9706 15.0683 87.4585 15.1314 87.9195 15.2887C88.3804 15.4459 88.8052 15.694 89.1686 16.0184C89.7936 16.6928 90.1618 17.5654 90.2088 18.4837C90.2088 18.8269 90.2088 19.1494 90.2712 19.4407C90.3336 19.7319 90.2712 20.0336 90.2712 20.3352C90.2712 20.6369 90.2712 20.9074 90.2712 21.209C90.2712 21.5107 90.2712 21.8436 90.2088 22.2492C90.1629 23.1647 89.7944 24.0344 89.1686 24.7041C88.8151 25.0275 88.3994 25.2754 87.9469 25.4328C87.4945 25.5902 87.0147 25.6537 86.5368 25.6195C86.381 25.632 86.2245 25.632 86.0687 25.6195L85.6734 25.5571L84.6332 24.8706C84.5868 24.846 84.535 24.8331 84.4824 24.8331C84.4298 24.8331 84.378 24.846 84.3316 24.8706C84.2909 24.8952 84.2577 24.9305 84.2357 24.9727C84.2137 25.0149 84.2037 25.0623 84.2067 25.1098V29.4787L82.0327 29.3851ZM86.1207 23.7887C86.3876 23.8165 86.6573 23.7852 86.9108 23.6971C87.1643 23.609 87.3952 23.4663 87.5874 23.279C87.8891 22.9339 88.0683 22.4987 88.0971 22.0412C88.1563 21.478 88.184 20.9119 88.1803 20.3457C88.184 19.7898 88.1562 19.2341 88.0971 18.6813C88.0715 18.2262 87.8918 17.7933 87.5874 17.4539C87.3929 17.2701 87.1616 17.1296 86.9087 17.0417C86.6559 16.9539 86.3874 16.9206 86.1207 16.9442C85.6034 16.9103 85.0909 17.0614 84.6748 17.3707C84.512 17.5186 84.3838 17.7007 84.2993 17.9039C84.2148 18.107 84.1761 18.3263 84.1859 18.5461V22.1556C84.178 22.3771 84.2196 22.5977 84.3078 22.801C84.3959 23.0044 84.5285 23.1855 84.6956 23.3311C85.0974 23.6551 85.6054 23.8183 86.1207 23.7887Z" fill="#2A2F44"/>
<path d="M92.8716 25.3895V15.3307H94.952V20.5318L94.6919 22.0297C94.6803 22.0671 94.6823 22.1075 94.6975 22.1437C94.7127 22.1798 94.7402 22.2095 94.7752 22.2273C94.848 22.2273 94.9104 22.2273 94.9728 22.1441L98.9984 15.3203H100.902V25.3791H98.8216V20.2821L99.0608 18.805C99.0608 18.6906 99.0608 18.6282 98.988 18.5866C98.9152 18.545 98.8424 18.5866 98.7592 18.7218L94.8064 25.3895H92.8716Z" fill="#2A2F44"/>
<path d="M102.993 25.3909L105.874 20.3562L102.993 15.332H105.354L106.894 18.2654L107.185 19.1808C107.194 19.2157 107.214 19.2467 107.242 19.2692C107.27 19.2918 107.305 19.3045 107.341 19.3056C107.376 19.306 107.41 19.2935 107.437 19.2706C107.464 19.2476 107.482 19.2157 107.487 19.1808L107.809 18.2654L109.307 15.332H111.658L108.808 20.3562L111.658 25.3909H109.307L107.809 22.4575L107.487 21.5421C107.482 21.5072 107.464 21.4753 107.437 21.4523C107.41 21.4293 107.376 21.4169 107.341 21.4173C107.305 21.4184 107.27 21.4311 107.242 21.4536C107.214 21.4762 107.194 21.5072 107.185 21.5421L106.894 22.4575L105.354 25.3909H102.993Z" fill="#2A2F44"/>
<path d="M119.23 25.3909V15.332H121.384V23.5913H124.972V15.332H127.053V25.3909H119.23ZM126.398 27.9914V23.5913H128.374V27.9914H126.398Z" fill="#2A2F44"/>
<path d="M134.334 25.5876C133.578 25.6092 132.827 25.4562 132.14 25.1403C131.555 24.8664 131.052 24.443 130.683 23.9129C130.321 23.3893 130.089 22.7865 130.007 22.1549C130.007 21.8324 129.934 21.5412 129.914 21.2603C129.893 20.9795 129.914 20.6986 129.914 20.4178C129.918 19.8228 129.96 19.2287 130.038 18.639C130.129 17.6854 130.553 16.7942 131.235 16.1217C131.6 15.7714 132.033 15.4987 132.507 15.32C132.98 15.1412 133.485 15.0601 133.991 15.0815C134.663 15.0576 135.33 15.1968 135.936 15.4872C136.422 15.7237 136.838 16.0821 137.143 16.5274C137.44 16.9875 137.648 17.499 137.757 18.0357C137.882 18.5992 137.945 19.1748 137.944 19.752L137.538 20.7922H130.871V19.1591H135.968C135.971 18.7817 135.914 18.4061 135.801 18.0461C135.703 17.7068 135.503 17.4056 135.229 17.1827C134.882 16.9329 134.459 16.8115 134.033 16.8394C133.761 16.8193 133.488 16.8623 133.235 16.9651C132.982 17.068 132.757 17.2279 132.576 17.4324C132.232 17.8454 132.034 18.3614 132.015 18.899C132.015 19.2319 132.015 19.6376 131.952 20.1265C131.944 20.6681 131.965 21.2098 132.015 21.7492C132.054 22.3084 132.303 22.8322 132.712 23.2159C133.184 23.5951 133.782 23.7842 134.386 23.7464C134.835 23.751 135.282 23.6807 135.708 23.5384C136.137 23.3997 136.547 23.2038 136.925 22.9559L137.507 24.5474C137.054 24.8683 136.556 25.1206 136.03 25.2963C135.484 25.484 134.912 25.5823 134.334 25.5876Z" fill="#2A2F44"/>
<path d="M140.211 25.3909V15.332H142.375V19.3993H145.943V15.332H148.086V25.3909H145.943V21.23H142.375V25.3909H140.211Z" fill="#2A2F44"/>
<path d="M153.058 25.3909V17.1212H150.156V15.332H158.082V17.1212H155.138V25.3909H153.058Z" fill="#2A2F44"/>
<path d="M160.121 29.3851V15.3318H162.274V15.8832C162.581 15.6329 162.935 15.4455 163.315 15.3318C163.732 15.1818 164.171 15.1044 164.615 15.103C165.101 15.0683 165.588 15.1314 166.049 15.2887C166.51 15.4459 166.935 15.694 167.299 16.0184C167.924 16.6928 168.292 17.5654 168.339 18.4837C168.339 18.8269 168.339 19.1494 168.401 19.4407C168.464 19.7319 168.401 20.0336 168.401 20.3352C168.401 20.6369 168.401 20.9074 168.401 21.209C168.401 21.5107 168.401 21.8436 168.339 22.2492C168.293 23.1647 167.924 24.0344 167.299 24.7041C166.945 25.0275 166.529 25.2754 166.077 25.4328C165.624 25.5902 165.145 25.6537 164.667 25.6195C164.515 25.6325 164.361 25.6325 164.209 25.6195L163.803 25.5571L162.763 24.8706C162.717 24.846 162.665 24.8331 162.612 24.8331C162.56 24.8331 162.508 24.846 162.462 24.8706C162.421 24.8952 162.388 24.9305 162.366 24.9727C162.344 25.0149 162.334 25.0623 162.337 25.1098V29.4787L160.121 29.3851ZM164.209 23.7887C164.476 23.8165 164.746 23.7852 164.999 23.6971C165.253 23.609 165.484 23.4663 165.676 23.279C165.977 22.9339 166.157 22.4987 166.186 22.0412C166.245 21.478 166.272 20.9119 166.269 20.3457C166.272 19.7898 166.245 19.2341 166.186 18.6813C166.16 18.2262 165.98 17.7933 165.676 17.4539C165.481 17.2701 165.25 17.1296 164.997 17.0417C164.744 16.9539 164.476 16.9206 164.209 16.9442C163.692 16.9103 163.179 17.0614 162.763 17.3707C162.6 17.5186 162.472 17.7007 162.388 17.9039C162.303 18.107 162.264 18.3263 162.274 18.5461V22.1556C162.269 22.3767 162.312 22.5964 162.4 22.7993C162.488 23.0022 162.619 23.1837 162.784 23.3311C163.186 23.6551 163.694 23.8183 164.209 23.7887Z" fill="#2A2F44"/>
<path d="M58.3987 37.4464C58.0944 37.4498 57.7917 37.4005 57.5041 37.3008C57.25 37.2053 57.0195 37.0563 56.828 36.8639C56.6832 36.7104 56.5639 36.5349 56.4743 36.3438C56.346 36.0747 56.2618 35.7867 56.2247 35.4908C56.0999 34.5484 56.0999 33.5935 56.2247 32.6511C56.2633 32.3555 56.3475 32.0678 56.4743 31.7981C56.5612 31.6055 56.6808 31.4295 56.828 31.278C57.0195 31.0856 57.25 30.9366 57.5041 30.8411C57.7917 30.7414 58.0944 30.6921 58.3987 30.6955C58.7065 30.6922 59.0125 30.7414 59.3037 30.8411C59.5564 30.9393 59.7864 31.088 59.9798 31.278C60.1303 31.4268 60.2504 31.6034 60.3335 31.7981C60.4556 32.0696 60.5396 32.3566 60.5832 32.6511C60.6941 33.5944 60.6941 34.5475 60.5832 35.4908C60.5411 35.7856 60.457 36.0729 60.3335 36.3438C60.2478 36.537 60.128 36.7132 59.9798 36.8639C59.7864 37.0539 59.5564 37.2026 59.3037 37.3008C59.0125 37.4005 58.7065 37.4497 58.3987 37.4464ZM58.3987 36.7183C58.5886 36.7314 58.7791 36.7048 58.9582 36.6404C59.1373 36.5759 59.301 36.4749 59.4389 36.3438C59.7003 36.0613 59.842 35.6884 59.8342 35.3036C59.8342 35.0331 59.8342 34.8043 59.8342 34.6171C59.8342 34.4298 59.8342 34.2322 59.8342 34.0449C59.8342 33.8577 59.8342 33.6497 59.8342 33.452C59.8342 33.2544 59.8342 33.0359 59.8342 32.7759C59.8398 32.3914 59.6985 32.0194 59.4389 31.7357C59.301 31.6046 59.1373 31.5036 58.9582 31.4391C58.7791 31.3747 58.5886 31.3481 58.3987 31.3612C58.209 31.3494 58.0188 31.3765 57.8399 31.4409C57.661 31.5053 57.4972 31.6056 57.3585 31.7357C57.1034 32.0221 56.9627 32.3924 56.9632 32.7759C56.9632 33.0359 56.9632 33.2648 56.9632 33.452C56.9632 33.6393 56.9632 33.8369 56.9632 34.0449C56.9632 34.253 56.9632 34.4298 56.9632 34.6171C56.9632 34.8043 56.9632 35.0331 56.9632 35.3036C56.9607 35.6875 57.1017 36.0585 57.3585 36.3438C57.5014 36.4646 57.6671 36.5554 57.8458 36.6108C58.0245 36.6662 58.2126 36.6851 58.3987 36.6663V36.7183Z" fill="#2A2F44"/>
<path d="M63.5998 37.4482C63.3045 37.4551 63.012 37.3909 62.7468 37.261C62.5068 37.1429 62.3023 36.9635 62.1539 36.7409C62.0104 36.5232 61.9114 36.2793 61.8626 36.0232C61.8211 35.8315 61.7967 35.6366 61.7898 35.4406C61.7898 35.2326 61.7898 35.0038 61.7898 34.7541C61.7898 34.026 61.7898 33.4018 61.8626 32.8921C61.8847 32.4618 61.9724 32.0373 62.1227 31.6335C62.2276 31.3316 62.4194 31.0674 62.674 30.8741C62.9438 30.6655 63.2625 30.5294 63.5998 30.4788H64.0054H64.3279L64.7024 30.406C64.834 30.372 64.96 30.3195 65.0769 30.25L65.3161 30.8325C65.1706 30.9084 65.0171 30.9677 64.8584 31.0094C64.6979 31.0573 64.5346 31.0955 64.3695 31.1238H63.9846H63.683C63.4107 31.1603 63.1563 31.2802 62.9548 31.467C62.7938 31.6387 62.6823 31.8508 62.6324 32.0808C62.5652 32.3428 62.5268 32.6114 62.5179 32.8817C62.5179 32.9337 62.5179 32.9649 62.5179 32.9857C62.5317 32.9951 62.5481 33.0002 62.5647 33.0002C62.5814 33.0002 62.5978 32.9951 62.6116 32.9857L63.0589 32.6321L63.3709 32.5385C63.4677 32.5282 63.5654 32.5282 63.6622 32.5385C63.9925 32.523 64.3195 32.6103 64.5984 32.7881C64.8286 32.9413 65.0178 33.1484 65.1497 33.3914C65.2745 33.6252 65.3589 33.8784 65.3993 34.1404C65.4393 34.4265 65.4602 34.7149 65.4617 35.0038C65.4597 35.2788 65.4389 35.5533 65.3993 35.8255C65.3515 36.2638 65.1529 36.6719 64.8376 36.9802C64.4994 37.2877 64.0569 37.4551 63.5998 37.4482ZM63.5998 36.7929C63.7428 36.8007 63.886 36.7789 64.0203 36.7288C64.1545 36.6786 64.277 36.6013 64.3799 36.5017C64.5636 36.3097 64.674 36.0594 64.692 35.7943C64.692 35.5239 64.692 35.2638 64.692 35.0246C64.692 34.7853 64.692 34.5149 64.692 34.234C64.6767 33.9683 64.5659 33.717 64.3799 33.5267C64.277 33.427 64.1545 33.3497 64.0203 33.2996C63.886 33.2494 63.7428 33.2276 63.5998 33.2354C63.4518 33.2264 63.3036 33.2475 63.1641 33.2976C63.0246 33.3477 62.8968 33.4256 62.7884 33.5267C62.5974 33.7136 62.4856 33.9669 62.4763 34.234C62.4763 34.5149 62.4763 34.7853 62.4763 35.0246C62.4763 35.2638 62.4763 35.5239 62.4763 35.7943C62.5065 36.0603 62.6235 36.3089 62.8092 36.5017C62.925 36.6019 63.0615 36.6753 63.2089 36.7166C63.3564 36.758 63.5111 36.7663 63.6622 36.7409L63.5998 36.7929Z" fill="#2A2F44"/>
<path d="M68.4162 37.3842C68.1848 37.397 67.9532 37.3631 67.7351 37.2844C67.5171 37.2058 67.3172 37.0841 67.1472 36.9265C66.8381 36.6163 66.6468 36.208 66.6063 35.7719C66.5671 35.5032 66.5463 35.2321 66.5438 34.9605C66.5438 34.8357 66.5438 34.7005 66.5438 34.5653C66.5345 34.4198 66.5345 34.2739 66.5438 34.1284C66.58 33.6911 66.7719 33.2814 67.0847 32.9737C67.4414 32.6777 67.8903 32.5156 68.3538 32.5156C68.8173 32.5156 69.2662 32.6777 69.6229 32.9737C69.9284 33.2864 70.1191 33.6934 70.1638 34.1284C70.1638 34.4404 70.1638 34.7109 70.1638 34.9605C70.1773 35.2308 70.1773 35.5016 70.1638 35.7719C70.1145 36.2055 69.9245 36.6111 69.6229 36.9265C69.2943 37.2284 68.8623 37.3923 68.4162 37.3842ZM68.4162 36.7393C68.5593 36.7471 68.7025 36.7253 68.8367 36.6751C68.971 36.625 69.0934 36.5477 69.1964 36.448C69.3734 36.2528 69.4796 36.0036 69.498 35.7407C69.5127 35.4843 69.5127 35.2273 69.498 34.9709C69.5125 34.7076 69.5125 34.4437 69.498 34.1804C69.4813 33.9171 69.3748 33.6674 69.1964 33.473C69.0934 33.3734 68.971 33.2961 68.8367 33.2459C68.7025 33.1958 68.5593 33.174 68.4162 33.1818C68.2697 33.171 68.1226 33.1914 67.9845 33.2416C67.8465 33.2918 67.7206 33.3707 67.6153 33.473C67.4323 33.6645 67.3251 33.9158 67.3136 34.1804C67.3136 34.4612 67.3136 34.7317 67.3136 34.9709C67.2989 35.2273 67.2989 35.4843 67.3136 35.7407C67.3408 36.0034 67.45 36.2508 67.6257 36.448C67.7298 36.549 67.854 36.6271 67.9901 36.6773C68.1263 36.7275 68.2714 36.7486 68.4162 36.7393Z" fill="#2A2F44"/>
<path d="M71.5784 39.1539V32.6214H72.3273V32.8815C72.4746 32.7681 72.6399 32.6802 72.8162 32.6214C73.0183 32.5587 73.2288 32.5271 73.4403 32.5278C73.6665 32.5111 73.8937 32.5423 74.107 32.6194C74.3203 32.6965 74.5149 32.8177 74.6782 32.9751C74.9766 33.2842 75.1538 33.6903 75.1775 34.1193C75.1775 34.2754 75.1775 34.421 75.1775 34.5562C75.1775 34.6914 75.1775 34.8163 75.1775 34.9411C75.1775 35.0659 75.1775 35.2012 75.1775 35.3364C75.1775 35.4716 75.1775 35.6172 75.1775 35.7733C75.1563 36.2059 74.9789 36.6161 74.6782 36.9279C74.5149 37.0853 74.3203 37.2065 74.107 37.2836C73.8937 37.3607 73.6665 37.3919 73.4403 37.3752H73.1907H72.9931L72.525 37.0735C72.5048 37.0605 72.4813 37.0536 72.4573 37.0536C72.4334 37.0536 72.4099 37.0605 72.3897 37.0735C72.3689 37.084 72.3518 37.1005 72.3406 37.121C72.3295 37.1414 72.3248 37.1648 72.3273 37.188V39.206L71.5784 39.1539ZM73.3571 36.7407C73.504 36.7565 73.6526 36.7385 73.7914 36.688C73.9302 36.6375 74.0557 36.5559 74.1581 36.4494C74.3253 36.245 74.4268 35.9948 74.4493 35.7317C74.4493 35.4751 74.4493 35.215 74.4493 34.9515C74.4493 34.6914 74.4493 34.4314 74.4493 34.1817C74.4294 33.9211 74.3274 33.6735 74.1581 33.4744C74.0557 33.3679 73.9302 33.2863 73.7914 33.2358C73.6526 33.1853 73.504 33.1673 73.3571 33.1831C73.0866 33.1679 72.8188 33.2449 72.5978 33.4016C72.5089 33.4742 72.4382 33.5666 72.3913 33.6713C72.3443 33.776 72.3224 33.8902 72.3273 34.0049V35.9085C72.3248 36.0228 72.3477 36.1363 72.3945 36.2407C72.4413 36.345 72.5107 36.4377 72.5978 36.5118C72.8155 36.6762 73.0848 36.7573 73.3571 36.7407Z" fill="#2A2F44"/>
<path d="M76.4779 39.3408L76.2075 38.6647C76.4906 38.6021 76.7417 38.4396 76.9148 38.207C77.079 37.973 77.2021 37.7127 77.2789 37.4373L77.4037 37.0316L75.729 32.6211H76.5092L77.6326 35.5649L77.7158 36.0642C77.7158 36.0642 77.7158 36.137 77.7782 36.137C77.8406 36.137 77.8406 36.137 77.8406 36.0642L77.9551 35.5649L78.86 32.6211H79.6298L77.9863 37.7285C77.8787 38.1127 77.6868 38.4681 77.4245 38.7687C77.1603 39.0336 76.8353 39.23 76.4779 39.3408Z" fill="#2A2F44"/>
<path d="M79.7231 38.4866V36.635H79.9936C80.086 36.5694 80.1699 36.4925 80.2432 36.4062C80.3177 36.3072 80.3709 36.1939 80.3993 36.0733C80.4569 35.8196 80.4986 35.5625 80.5241 35.3036C80.5241 35.0019 80.5241 34.6378 80.5969 34.2009C80.6697 33.7641 80.5969 33.2543 80.5969 32.6406H83.5199V36.6558H84.0712V38.4866H83.4055V37.28H80.2849V38.4866H79.7231ZM81.0754 36.6246H82.8542V33.2856H81.3875C81.3875 33.8889 81.3875 34.4402 81.3043 34.9187C81.221 35.3972 81.221 35.7404 81.1898 35.9589L80.9714 36.4894C80.9194 36.5726 80.961 36.635 81.0754 36.635V36.6246Z" fill="#2A2F44"/>
<path d="M86.6926 37.3842C86.2323 37.4032 85.7833 37.2386 85.4444 36.9265C85.1428 36.6111 84.9528 36.2055 84.9035 35.7719C84.8899 35.5016 84.8899 35.2308 84.9035 34.9605C84.9035 34.8357 84.9035 34.7005 84.9035 34.5653C84.9035 34.43 84.9035 34.2844 84.9035 34.1284C84.9481 33.6934 85.1388 33.2864 85.4444 32.9737C85.801 32.6777 86.2499 32.5156 86.7134 32.5156C87.177 32.5156 87.6259 32.6777 87.9825 32.9737C88.2916 33.284 88.4829 33.6923 88.5234 34.1284C88.5628 34.4041 88.5836 34.6821 88.5858 34.9605C88.5834 35.2321 88.5625 35.5032 88.5234 35.7719C88.4787 36.2068 88.2881 36.6138 87.9825 36.9265C87.81 37.0867 87.6067 37.2099 87.3849 37.2886C87.163 37.3673 86.9275 37.3999 86.6926 37.3842ZM86.6926 36.7393C86.8474 36.7494 87.0024 36.7247 87.1464 36.6671C87.2904 36.6095 87.4197 36.5204 87.5248 36.4064C87.7018 36.2111 87.8081 35.962 87.8265 35.6991C87.8412 35.4427 87.8412 35.1857 87.8265 34.9293C87.841 34.666 87.841 34.4021 87.8265 34.1388C87.8097 33.8755 87.7032 33.6258 87.5248 33.4314C87.3044 33.2432 87.0241 33.1397 86.7342 33.1397C86.4444 33.1397 86.1641 33.2432 85.9437 33.4314C85.7577 33.6218 85.6469 33.8731 85.6316 34.1388C85.6316 34.4196 85.6316 34.6901 85.6316 34.9293C85.6316 35.1686 85.6316 35.4286 85.6316 35.6991C85.6589 35.9618 85.768 36.2092 85.9437 36.4064C86.0395 36.5097 86.1553 36.5925 86.284 36.6497C86.4127 36.707 86.5518 36.7374 86.6926 36.7393Z" fill="#2A2F44"/>
<path d="M89.8652 37.2797V32.6196H91.6856C92.0807 32.5985 92.4708 32.7163 92.7882 32.9525C92.9211 33.068 93.0259 33.2125 93.0944 33.3747C93.1629 33.537 93.1934 33.7128 93.1835 33.8887C93.1873 34.1079 93.1218 34.3226 92.9963 34.5024C92.8641 34.681 92.6837 34.8182 92.4762 34.8977C92.7131 34.97 92.9231 35.1112 93.0795 35.3033C93.2301 35.5037 93.3072 35.7498 93.2979 36.0003C93.3061 36.1794 93.2728 36.3581 93.2007 36.5223C93.1285 36.6865 93.0194 36.8318 92.8818 36.9469C92.5408 37.1915 92.125 37.3092 91.7064 37.2797H89.8652ZM90.583 34.6376H91.6232C91.8375 34.6531 92.0496 34.5861 92.2161 34.4504C92.2877 34.3849 92.3435 34.3041 92.3795 34.2141C92.4156 34.124 92.4308 34.027 92.4241 33.9303C92.43 33.8351 92.4143 33.7399 92.3783 33.6517C92.3423 33.5634 92.2868 33.4844 92.2161 33.4206C92.0496 33.2848 91.8375 33.2179 91.6232 33.2333H90.583V34.6376ZM90.583 36.718H91.6232C91.8518 36.7317 92.0785 36.6695 92.2681 36.5412C92.3454 36.4794 92.4065 36.3998 92.4464 36.3092C92.4862 36.2187 92.5036 36.1198 92.497 36.0211C92.5019 35.9226 92.4837 35.8243 92.444 35.734C92.4043 35.6437 92.3441 35.5639 92.2681 35.501C92.0852 35.3573 91.8553 35.2868 91.6232 35.3033H90.583V36.718Z" fill="#2A2F44"/>
<path d="M97.251 37.4475L96.9389 36.9898C96.9389 36.9898 96.8557 36.9274 96.8037 36.9898C96.6638 37.1218 96.5062 37.2339 96.3356 37.3226C96.1322 37.4228 95.9066 37.4693 95.6802 37.4579C95.4914 37.4687 95.3023 37.4421 95.1238 37.3796C94.9453 37.3171 94.7809 37.22 94.64 37.0938C94.5075 36.9757 94.4032 36.8293 94.3347 36.6654C94.2663 36.5016 94.2356 36.3245 94.2447 36.1472C94.2373 35.8996 94.2985 35.6548 94.4216 35.4399C94.5485 35.244 94.729 35.0887 94.9417 34.9926C95.1875 34.885 95.4536 34.8317 95.7218 34.8365H96.7621V34.1708C96.7693 34.0534 96.7527 33.9358 96.7134 33.825C96.6741 33.7142 96.6128 33.6124 96.5332 33.5259C96.433 33.4377 96.3157 33.371 96.1887 33.3298C96.0617 33.2887 95.9276 33.274 95.7947 33.2866C95.5718 33.2822 95.3499 33.3174 95.1393 33.3906C94.9293 33.4757 94.733 33.5914 94.5568 33.7339L94.3176 33.0786C94.5308 32.9068 94.7742 32.7763 95.0353 32.6937C95.2989 32.6171 95.5721 32.5786 95.8467 32.5793C96.0705 32.5614 96.2956 32.5911 96.5072 32.6664C96.7187 32.7417 96.9119 32.8609 97.0741 33.0162C97.3402 33.2965 97.4859 33.6699 97.4798 34.0564V36.4072L97.8855 37.0106L97.251 37.4475ZM95.7114 36.7921C95.9986 36.8122 96.2833 36.7272 96.5124 36.5529C96.6084 36.4759 96.6847 36.3774 96.7354 36.2653C96.786 36.1533 96.8094 36.0308 96.8037 35.9079V35.4919C96.8037 35.3774 96.8037 35.3254 96.6372 35.3566L96.1275 35.4711H95.7739C95.5661 35.4562 95.3599 35.5151 95.1913 35.6375C95.1208 35.69 95.0647 35.7595 95.0283 35.8395C94.992 35.9196 94.9765 36.0075 94.9833 36.0952C94.9796 36.1892 94.9952 36.2829 95.0292 36.3706C95.0632 36.4582 95.1148 36.538 95.1809 36.6049C95.3344 36.7153 95.5239 36.7636 95.7114 36.7401V36.7921Z" fill="#2A2F44"/>
<path d="M99.144 37.2812V32.6211H99.8826V34.5767H101.817V32.6211H102.566V37.2812H101.817V35.2008H99.8826V37.2812H99.144Z" fill="#2A2F44"/>
<path d="M104.168 37.2812V32.6211H104.917V35.4713L104.813 36.0954C104.813 36.0954 104.813 36.1682 104.813 36.1786C104.813 36.189 104.813 36.1786 104.896 36.1786L106.977 32.6627H107.674V37.3228H106.925V34.4519L107.018 33.8485C107.018 33.8485 107.018 33.7653 107.018 33.7445C107.018 33.7237 106.946 33.7445 106.914 33.8173L104.834 37.2812H104.168Z" fill="#2A2F44"/>
<path d="M110.899 37.3729C110.567 37.3863 110.238 37.3147 109.942 37.1649C109.688 37.0342 109.476 36.8362 109.328 36.5927C109.178 36.3423 109.085 36.0616 109.057 35.771C109.057 35.6253 109.057 35.4797 109.057 35.3549C109.057 35.2301 109.057 35.0948 109.057 34.9596C109.06 34.6811 109.08 34.4031 109.12 34.1275C109.159 33.6962 109.346 33.2918 109.65 32.9832C109.813 32.8274 110.006 32.7064 110.217 32.6277C110.428 32.549 110.653 32.5142 110.878 32.5255C111.196 32.5117 111.512 32.5835 111.793 32.7336C112.013 32.8579 112.193 33.0418 112.313 33.2641C112.433 33.4771 112.514 33.7095 112.552 33.9506C112.592 34.1739 112.613 34.4 112.615 34.6268L112.428 35.1156H109.609V34.4811H111.908C111.907 34.2738 111.879 34.0674 111.824 33.8674C111.78 33.6757 111.674 33.5039 111.523 33.3785C111.309 33.2382 111.055 33.1732 110.801 33.1939C110.546 33.2147 110.306 33.3199 110.118 33.4929C109.94 33.6845 109.831 33.9295 109.806 34.1899C109.806 34.3459 109.806 34.5539 109.806 34.8244C109.787 35.1327 109.787 35.4419 109.806 35.7502C109.836 36.0092 109.945 36.2527 110.118 36.4471C110.226 36.5555 110.357 36.6387 110.501 36.6909C110.645 36.743 110.798 36.7628 110.951 36.7488C111.41 36.7586 111.859 36.6078 112.22 36.3223L112.438 36.8944C112.22 37.0474 111.987 37.1764 111.741 37.2793C111.468 37.3581 111.183 37.3898 110.899 37.3729Z" fill="#2A2F44"/>
<path d="M115.611 38.4879V36.6363H115.881C115.986 36.5671 116.081 36.483 116.162 36.3866C116.24 36.2883 116.296 36.175 116.328 36.0538C116.328 35.8353 116.412 35.5753 116.443 35.284C116.474 34.9928 116.505 34.6183 116.526 34.1814C116.547 33.7445 116.526 33.2348 116.526 32.6211H119.449V36.6363H120.011V38.4879H119.335V37.2812H116.214V38.4879H115.611ZM116.952 36.6259H118.731V33.2868H117.265C117.265 33.8901 117.265 34.4415 117.181 34.92C117.098 35.3985 117.098 35.7417 117.067 35.9602L116.848 36.4907C116.786 36.5739 116.817 36.6363 116.932 36.6363L116.952 36.6259Z" fill="#2A2F44"/>
<path d="M120.697 37.3748L120.468 36.7715C120.65 36.7186 120.82 36.6303 120.968 36.5115C121.101 36.3894 121.196 36.23 121.238 36.0538C121.296 35.8001 121.337 35.543 121.363 35.284C121.363 34.9824 121.415 34.6183 121.436 34.1814C121.456 33.7445 121.436 33.2348 121.436 32.6211H124.286V37.2812H123.537V33.2868H122.143C122.143 33.8901 122.143 34.4519 122.049 34.9408C121.956 35.4297 121.945 35.8561 121.883 36.1786C121.839 36.4931 121.688 36.783 121.456 37.0004C121.238 37.1856 120.977 37.3142 120.697 37.3748Z" fill="#2A2F44"/>
<path d="M125.399 37.2801L126.346 35.7614L126.637 35.4181C126.71 35.3453 126.699 35.3037 126.637 35.2829C126.33 35.2505 126.047 35.1016 125.846 34.8668C125.668 34.6382 125.573 34.3558 125.576 34.0659C125.571 33.8733 125.605 33.6817 125.676 33.5028C125.748 33.3239 125.855 33.1616 125.992 33.0257C126.316 32.7608 126.728 32.6272 127.146 32.6512H128.977V37.3113H128.228V35.4181H127.386L126.252 37.2801H125.399ZM127.115 34.8148H128.207V33.2857H127.115C127.007 33.28 126.898 33.2964 126.796 33.334C126.694 33.3715 126.601 33.4294 126.522 33.5042C126.447 33.5823 126.388 33.6754 126.35 33.7775C126.313 33.8796 126.297 33.9885 126.304 34.0971C126.298 34.1993 126.315 34.3015 126.353 34.3967C126.39 34.4919 126.448 34.5778 126.522 34.6484C126.694 34.7731 126.904 34.8322 127.115 34.8148Z" fill="#2A2F44"/>
<path d="M133.887 37.2786V33.2842H132.451V32.6289H136.071V33.2842H134.636V37.289L133.887 37.2786Z" fill="#2A2F44"/>
<path d="M138.495 37.3842C138.264 37.397 138.032 37.3631 137.814 37.2844C137.596 37.2058 137.396 37.0841 137.226 36.9265C136.917 36.6163 136.726 36.208 136.685 35.7719C136.646 35.5032 136.625 35.2321 136.623 34.9605C136.623 34.8357 136.623 34.7005 136.623 34.5653C136.623 34.43 136.623 34.2844 136.623 34.1284C136.659 33.6911 136.851 33.2814 137.164 32.9737C137.521 32.6777 137.97 32.5156 138.433 32.5156C138.897 32.5156 139.345 32.6777 139.702 32.9737C140.008 33.2864 140.198 33.6934 140.243 34.1284C140.243 34.4404 140.295 34.7109 140.295 34.9605C140.291 35.2317 140.274 35.5025 140.243 35.7719C140.194 36.2055 140.004 36.6111 139.702 36.9265C139.374 37.2284 138.941 37.3923 138.495 37.3842ZM138.495 36.7393C138.639 36.7471 138.782 36.7253 138.916 36.6751C139.05 36.625 139.173 36.5477 139.276 36.448C139.451 36.2508 139.56 36.0034 139.588 35.7407C139.588 35.4702 139.588 35.2102 139.588 34.9709C139.588 34.7317 139.588 34.4612 139.588 34.1804C139.563 33.9171 139.453 33.6691 139.276 33.473C139.173 33.3734 139.05 33.2961 138.916 33.2459C138.782 33.1958 138.639 33.174 138.495 33.1818C138.349 33.171 138.202 33.1914 138.064 33.2416C137.926 33.2918 137.8 33.3707 137.694 33.473C137.511 33.6645 137.404 33.9158 137.393 34.1804C137.393 34.4612 137.393 34.7317 137.393 34.9709C137.378 35.2273 137.378 35.4843 137.393 35.7407C137.42 36.0034 137.529 36.2508 137.705 36.448C137.809 36.549 137.933 36.6271 138.069 36.6773C138.205 36.7275 138.351 36.7486 138.495 36.7393Z" fill="#2A2F44"/>
<path d="M141.616 39.1539V32.6214H142.354V32.8815C142.502 32.7681 142.667 32.6802 142.843 32.6214C143.045 32.5587 143.256 32.5271 143.467 32.5278C143.693 32.5111 143.921 32.5423 144.134 32.6194C144.347 32.6965 144.542 32.8177 144.705 32.9751C145.004 33.2842 145.181 33.6903 145.204 34.1193C145.204 34.2788 145.204 34.4245 145.204 34.5562V35.3676C145.204 35.4924 145.204 35.6484 145.204 35.8045C145.184 36.2221 145.019 36.6196 144.736 36.9279C144.573 37.0853 144.378 37.2065 144.165 37.2836C143.952 37.3607 143.725 37.3919 143.498 37.3752H143.249H143.051L142.583 37.0735C142.563 37.0605 142.539 37.0536 142.516 37.0536C142.492 37.0536 142.468 37.0605 142.448 37.0735C142.427 37.084 142.41 37.1005 142.399 37.121C142.388 37.1414 142.383 37.1648 142.385 37.188V39.206L141.616 39.1539ZM143.384 36.7407C143.532 36.7529 143.681 36.7333 143.821 36.683C143.961 36.6328 144.089 36.5531 144.195 36.4494C144.356 36.2419 144.453 35.9928 144.476 35.7317C144.476 35.4751 144.476 35.215 144.476 34.9515C144.476 34.6914 144.476 34.4314 144.476 34.1817C144.455 33.9234 144.357 33.6772 144.195 33.4744C144.089 33.3707 143.961 33.291 143.821 33.2408C143.681 33.1905 143.532 33.1709 143.384 33.1831C143.114 33.1679 142.846 33.2449 142.625 33.4016C142.536 33.4742 142.465 33.5666 142.418 33.6713C142.371 33.776 142.349 33.8902 142.354 34.0049V35.9085C142.352 36.0228 142.375 36.1363 142.421 36.2407C142.468 36.345 142.538 36.4377 142.625 36.5118C142.845 36.6786 143.119 36.7599 143.394 36.7407H143.384Z" fill="#2A2F44"/>
<path d="M146.557 37.2812V32.6211H149.313V33.2868H147.306V37.2916L146.557 37.2812Z" fill="#2A2F44"/>
<path d="M151.685 37.3842C151.454 37.3964 151.222 37.3622 151.004 37.2836C150.787 37.205 150.586 37.0836 150.416 36.9265C150.115 36.6111 149.925 36.2055 149.875 35.7719C149.844 35.5025 149.827 35.2317 149.823 34.9605C149.823 34.8357 149.823 34.7005 149.823 34.5653C149.823 34.43 149.823 34.2844 149.823 34.1284C149.868 33.6934 150.059 33.2864 150.364 32.9737C150.721 32.6777 151.17 32.5156 151.633 32.5156C152.097 32.5156 152.546 32.6777 152.902 32.9737C153.211 33.284 153.403 33.6923 153.443 34.1284C153.483 34.4041 153.503 34.6821 153.506 34.9605C153.503 35.2321 153.482 35.5032 153.443 35.7719C153.399 36.2068 153.208 36.6138 152.902 36.9265C152.572 37.2319 152.135 37.3961 151.685 37.3842ZM151.685 36.7393C151.83 36.7486 151.975 36.7275 152.111 36.6773C152.247 36.6271 152.372 36.549 152.476 36.448C152.653 36.2528 152.759 36.0036 152.777 35.7407C152.792 35.4843 152.792 35.2273 152.777 34.9709C152.792 34.7076 152.792 34.4437 152.777 34.1804C152.761 33.9171 152.654 33.6674 152.476 33.473C152.255 33.2848 151.975 33.1813 151.685 33.1813C151.395 33.1813 151.115 33.2848 150.895 33.473C150.709 33.6634 150.598 33.9147 150.583 34.1804C150.583 34.4612 150.583 34.7317 150.583 34.9709C150.583 35.2102 150.583 35.4702 150.583 35.7407C150.61 36.0034 150.719 36.2508 150.895 36.448C150.999 36.549 151.123 36.6271 151.259 36.6773C151.395 36.7275 151.54 36.7486 151.685 36.7393Z" fill="#2A2F44"/>
<path d="M154.858 37.2797V32.6196H156.636C157.032 32.5985 157.422 32.7163 157.739 32.9525C157.872 33.068 157.977 33.2125 158.045 33.3747C158.114 33.537 158.144 33.7128 158.134 33.8887C158.138 34.1079 158.073 34.3226 157.947 34.5024C157.815 34.681 157.635 34.8182 157.427 34.8977C157.664 34.97 157.874 35.1112 158.03 35.3033C158.181 35.5037 158.258 35.7498 158.249 36.0003C158.257 36.1794 158.224 36.3581 158.151 36.5223C158.079 36.6865 157.97 36.8318 157.833 36.9469C157.492 37.1915 157.076 37.3092 156.657 37.2797H154.858ZM155.575 34.6376H156.616C156.83 34.6531 157.042 34.5861 157.209 34.4504C157.28 34.3849 157.336 34.3041 157.372 34.2141C157.408 34.124 157.423 34.027 157.417 33.9303C157.422 33.8351 157.407 33.7399 157.371 33.6517C157.335 33.5634 157.279 33.4844 157.209 33.4206C157.042 33.2848 156.83 33.2179 156.616 33.2333H155.575V34.6376ZM155.575 36.718H156.616C156.844 36.7317 157.071 36.6695 157.261 36.5412C157.338 36.4794 157.399 36.3998 157.439 36.3092C157.479 36.2187 157.496 36.1198 157.489 36.0211C157.494 35.9226 157.476 35.8243 157.436 35.734C157.397 35.6437 157.336 35.5639 157.261 35.501C157.078 35.3573 156.848 35.2868 156.616 35.3033H155.575V36.718Z" fill="#2A2F44"/>
<path d="M159.185 37.3748L158.956 36.7715C159.138 36.7186 159.308 36.6303 159.455 36.5115C159.589 36.3894 159.684 36.23 159.726 36.0538C159.783 35.8001 159.825 35.543 159.851 35.284C159.851 34.9824 159.903 34.6183 159.923 34.1814C159.944 33.7445 159.923 33.2348 159.923 32.6211H162.774V37.2812H162.025V33.2868H160.631C160.631 33.8901 160.631 34.4519 160.537 34.9408C160.444 35.4297 160.433 35.8561 160.381 36.1786C160.329 36.4927 160.175 36.7811 159.944 37.0004C159.726 37.1856 159.465 37.3142 159.185 37.3748Z" fill="#2A2F44"/>
<path d="M164.407 37.2812V32.6211H165.146V35.4713L165.042 36.0954C165.042 36.0954 165.042 36.1682 165.042 36.1786C165.042 36.189 165.104 36.1786 165.125 36.1786L167.205 32.6627H167.902V37.3228H167.164V34.4519L167.257 33.8485C167.257 33.8485 167.257 33.7653 167.257 33.7445C167.257 33.7237 167.195 33.7445 167.153 33.8173L165.073 37.2812H164.407Z" fill="#2A2F44"/>
</svg>
